M48
;GenerationSoftware,Autodesk,EAGLE,9.6.2*%
;CreationDate,2024-10-03T15:01:39Z*%
FMAT,2
ICI,OFF
METRIC,TZ,000.000
T7C0.900
T6C1.000
T5C1.016
T4C1.100
T3C1.300
T2C2.000
T1C3.000
%
G90
M71
T1
X3302Y3175
X73279Y2794
X73406Y76835
X3302Y76454
T2
X28956Y63373
X28956Y71120
X16002Y71120
X16002Y63373
T3
X8866Y10136
X11465Y10136
X14065Y10136
X16666Y10136
X19266Y10136
X21865Y10136
X24465Y10136
X27065Y10136
X24511Y28448
X21971Y28448
X19431Y28448
X16891Y28448
X11811Y28448
X14351Y28448
X9271Y28448
X27051Y28448
T4
X19583Y66112
X22583Y66112
X25583Y66112
X19583Y68612
X22583Y68612
X25583Y68612
T5
X20574Y53086
X16002Y53086
T6
X64848Y13960
X64848Y16500
X64848Y19040
X64848Y21580
X64848Y24120
X64848Y26660
X40078Y31740
X40078Y34280
X40078Y36820
X40078Y39360
X40078Y41900
X40078Y44440
X40078Y46980
X40078Y49520
X40078Y24120
X40078Y21580
X40078Y19040
X40078Y16500
X40078Y13960
X64848Y49520
X64848Y46980
X64848Y44440
X40078Y26660
X64848Y41900
X64848Y39360
X64848Y36820
X64848Y34280
X64848Y31740
X64848Y29200
X40078Y29200
T7
X46990Y63500
X35560Y63500
X44450Y63500
X44450Y71120
X46990Y71120
X35560Y71120
X38100Y71120
X55880Y67310
X53340Y67310
X38100Y63500
M30