G04 EAGLE Gerber RS-274X export*
G75*
%MOMM*%
%FSLAX34Y34*%
%LPD*%
%INBottom Copper*%
%IPPOS*%
%AMOC8*
5,1,8,0,0,1.08239X$1,22.5*%
G01*
%ADD10C,1.950000*%
%ADD11C,1.930400*%
%ADD12C,1.408000*%
%ADD13C,1.650000*%
%ADD14P,2.061953X8X22.500000*%
%ADD15C,1.500000*%

G36*
X120154Y10169D02*
X120154Y10169D01*
X120308Y10167D01*
X120541Y10189D01*
X120774Y10201D01*
X120926Y10224D01*
X121079Y10239D01*
X121308Y10284D01*
X121539Y10320D01*
X121687Y10359D01*
X121838Y10389D01*
X122062Y10458D01*
X122287Y10518D01*
X122431Y10572D01*
X122578Y10618D01*
X122793Y10709D01*
X123012Y10792D01*
X123149Y10861D01*
X123291Y10921D01*
X123495Y11034D01*
X123704Y11139D01*
X123833Y11222D01*
X123968Y11296D01*
X124160Y11430D01*
X124357Y11556D01*
X124477Y11651D01*
X124603Y11739D01*
X124780Y11892D01*
X124963Y12037D01*
X125073Y12145D01*
X125189Y12245D01*
X125349Y12415D01*
X125516Y12579D01*
X125614Y12697D01*
X125720Y12809D01*
X125861Y12995D01*
X126011Y13175D01*
X126096Y13303D01*
X126189Y13425D01*
X126311Y13624D01*
X126441Y13818D01*
X126513Y13954D01*
X126593Y14085D01*
X126694Y14296D01*
X126803Y14503D01*
X126860Y14646D01*
X126926Y14784D01*
X127005Y15004D01*
X127092Y15221D01*
X127135Y15369D01*
X127186Y15514D01*
X127241Y15741D01*
X127306Y15965D01*
X127333Y16116D01*
X127369Y16266D01*
X127401Y16498D01*
X127442Y16728D01*
X127453Y16881D01*
X127474Y17033D01*
X127481Y17267D01*
X127498Y17500D01*
X127493Y17653D01*
X127498Y17807D01*
X127482Y18040D01*
X127475Y18274D01*
X127454Y18426D01*
X127443Y18579D01*
X127403Y18809D01*
X127372Y19041D01*
X127335Y19191D01*
X127309Y19342D01*
X127245Y19566D01*
X127190Y19794D01*
X127139Y19939D01*
X127096Y20087D01*
X127009Y20304D01*
X126931Y20524D01*
X126866Y20663D01*
X126808Y20805D01*
X126699Y21012D01*
X126599Y21223D01*
X126519Y21354D01*
X126448Y21491D01*
X126318Y21685D01*
X126197Y21885D01*
X126104Y22007D01*
X126018Y22135D01*
X125918Y22251D01*
X125728Y22501D01*
X125402Y22849D01*
X125303Y22963D01*
X75836Y72430D01*
X73534Y77987D01*
X73534Y92596D01*
X73526Y92747D01*
X73528Y92897D01*
X73507Y93133D01*
X73494Y93370D01*
X73471Y93518D01*
X73457Y93668D01*
X73411Y93901D01*
X73375Y94135D01*
X73336Y94280D01*
X73307Y94428D01*
X73259Y94574D01*
X73177Y94883D01*
X73016Y95310D01*
X73007Y95333D01*
X72963Y95466D01*
X71904Y98023D01*
X71904Y104687D01*
X72963Y107244D01*
X73014Y107386D01*
X73073Y107524D01*
X73143Y107750D01*
X73222Y107974D01*
X73258Y108120D01*
X73302Y108264D01*
X73349Y108496D01*
X73405Y108726D01*
X73425Y108875D01*
X73454Y109023D01*
X73466Y109177D01*
X73509Y109493D01*
X73523Y109962D01*
X73534Y110114D01*
X73534Y244308D01*
X75836Y249865D01*
X84498Y258527D01*
X84652Y258698D01*
X84814Y258863D01*
X84912Y258986D01*
X85017Y259102D01*
X85153Y259288D01*
X85296Y259469D01*
X85381Y259601D01*
X85473Y259728D01*
X85589Y259927D01*
X85713Y260121D01*
X85784Y260261D01*
X85863Y260397D01*
X85958Y260607D01*
X86061Y260813D01*
X86117Y260960D01*
X86181Y261103D01*
X86254Y261321D01*
X86336Y261537D01*
X86376Y261689D01*
X86425Y261837D01*
X86475Y262063D01*
X86534Y262285D01*
X86558Y262440D01*
X86592Y262594D01*
X86618Y262822D01*
X86654Y263050D01*
X86662Y263207D01*
X86680Y263363D01*
X86683Y263593D01*
X86695Y263824D01*
X86687Y263980D01*
X86688Y264137D01*
X86667Y264367D01*
X86655Y264597D01*
X86631Y264752D01*
X86617Y264908D01*
X86572Y265134D01*
X86537Y265362D01*
X86497Y265514D01*
X86466Y265668D01*
X86398Y265888D01*
X86339Y266111D01*
X86284Y266257D01*
X86238Y266407D01*
X86148Y266619D01*
X86066Y266835D01*
X85996Y266976D01*
X85935Y267120D01*
X85823Y267321D01*
X85720Y267528D01*
X85635Y267660D01*
X85559Y267797D01*
X85428Y267986D01*
X85304Y268181D01*
X85206Y268304D01*
X85116Y268432D01*
X84966Y268606D01*
X84822Y268787D01*
X84713Y268900D01*
X84610Y269018D01*
X84443Y269176D01*
X84281Y269341D01*
X84160Y269442D01*
X84046Y269549D01*
X83863Y269689D01*
X83686Y269836D01*
X83622Y269879D01*
X78509Y274991D01*
X75959Y281148D01*
X75959Y287812D01*
X78509Y293969D01*
X83221Y298681D01*
X89378Y301231D01*
X96042Y301231D01*
X102540Y298539D01*
X102609Y298514D01*
X102677Y298484D01*
X102975Y298385D01*
X103270Y298280D01*
X103341Y298263D01*
X103411Y298239D01*
X103718Y298171D01*
X104022Y298098D01*
X104095Y298088D01*
X104167Y298072D01*
X104479Y298036D01*
X104790Y297994D01*
X104863Y297992D01*
X104936Y297983D01*
X105249Y297980D01*
X105564Y297970D01*
X105637Y297975D01*
X105711Y297974D01*
X106023Y298003D01*
X106336Y298026D01*
X106408Y298038D01*
X106482Y298045D01*
X106790Y298106D01*
X107098Y298161D01*
X107169Y298181D01*
X107241Y298195D01*
X107385Y298243D01*
X107843Y298374D01*
X108134Y298491D01*
X108280Y298539D01*
X114778Y301231D01*
X121442Y301231D01*
X127598Y298681D01*
X129359Y296920D01*
X129434Y296853D01*
X129503Y296780D01*
X129721Y296594D01*
X129934Y296402D01*
X130015Y296342D01*
X130092Y296277D01*
X130328Y296114D01*
X130559Y295945D01*
X130646Y295895D01*
X130729Y295837D01*
X130981Y295700D01*
X131229Y295556D01*
X131320Y295514D01*
X131409Y295466D01*
X131673Y295355D01*
X131934Y295237D01*
X132030Y295205D01*
X132123Y295167D01*
X132397Y295084D01*
X132669Y294993D01*
X132768Y294971D01*
X132864Y294942D01*
X133146Y294888D01*
X133425Y294826D01*
X133525Y294815D01*
X133624Y294796D01*
X133910Y294771D01*
X134195Y294738D01*
X134295Y294737D01*
X134396Y294728D01*
X134682Y294733D01*
X134969Y294730D01*
X135069Y294739D01*
X135170Y294741D01*
X135454Y294775D01*
X135740Y294802D01*
X135838Y294821D01*
X135939Y294833D01*
X136011Y294849D01*
X136011Y284480D01*
X136011Y271181D01*
X136006Y271179D01*
X135926Y271118D01*
X135841Y271064D01*
X135617Y270886D01*
X135387Y270714D01*
X135313Y270645D01*
X135234Y270583D01*
X135029Y270383D01*
X134819Y270188D01*
X134753Y270112D01*
X134681Y270042D01*
X134497Y269821D01*
X134308Y269606D01*
X134250Y269524D01*
X134186Y269447D01*
X134026Y269209D01*
X133860Y268974D01*
X133810Y268887D01*
X133755Y268803D01*
X133683Y268661D01*
X133479Y268300D01*
X133335Y267969D01*
X133263Y267826D01*
X130929Y262190D01*
X105972Y237233D01*
X105923Y237178D01*
X105869Y237128D01*
X105664Y236891D01*
X105454Y236658D01*
X105410Y236599D01*
X105362Y236543D01*
X105182Y236286D01*
X104997Y236033D01*
X104960Y235969D01*
X104918Y235909D01*
X104766Y235635D01*
X104608Y235364D01*
X104577Y235297D01*
X104542Y235232D01*
X104418Y234944D01*
X104289Y234658D01*
X104266Y234588D01*
X104237Y234520D01*
X104144Y234221D01*
X104045Y233923D01*
X104029Y233851D01*
X104008Y233781D01*
X103946Y233473D01*
X103878Y233167D01*
X103870Y233094D01*
X103856Y233022D01*
X103845Y232871D01*
X103790Y232398D01*
X103787Y232084D01*
X103776Y231930D01*
X103776Y120871D01*
X103777Y120847D01*
X103776Y120824D01*
X103797Y120462D01*
X103816Y120097D01*
X103819Y120074D01*
X103821Y120051D01*
X103879Y119693D01*
X103935Y119332D01*
X103941Y119310D01*
X103945Y119286D01*
X104040Y118935D01*
X104133Y118584D01*
X104141Y118562D01*
X104147Y118539D01*
X104278Y118199D01*
X104407Y117860D01*
X104417Y117839D01*
X104426Y117817D01*
X104591Y117492D01*
X104754Y117167D01*
X104766Y117148D01*
X104777Y117127D01*
X104976Y116820D01*
X105171Y116515D01*
X105185Y116496D01*
X105198Y116477D01*
X105426Y116193D01*
X105652Y115909D01*
X105669Y115892D01*
X105683Y115873D01*
X105939Y115615D01*
X106194Y115355D01*
X106212Y115340D01*
X106229Y115323D01*
X106509Y115094D01*
X106790Y114861D01*
X106809Y114848D01*
X106827Y114833D01*
X107130Y114633D01*
X107156Y114616D01*
X107156Y101355D01*
X107171Y101048D01*
X107181Y100742D01*
X107191Y100662D01*
X107196Y100582D01*
X107243Y100279D01*
X107284Y99974D01*
X107303Y99896D01*
X107315Y99817D01*
X107393Y99521D01*
X107466Y99221D01*
X107492Y99146D01*
X107513Y99068D01*
X107621Y98782D01*
X107724Y98492D01*
X107758Y98419D01*
X107787Y98344D01*
X107924Y98070D01*
X108056Y97792D01*
X108098Y97724D01*
X108134Y97652D01*
X108299Y97393D01*
X108459Y97131D01*
X108507Y97067D01*
X108550Y96999D01*
X108741Y96759D01*
X108927Y96514D01*
X108982Y96456D01*
X109032Y96393D01*
X109247Y96174D01*
X109457Y95950D01*
X109518Y95897D01*
X109574Y95840D01*
X109810Y95643D01*
X110042Y95442D01*
X110108Y95397D01*
X110170Y95345D01*
X110425Y95174D01*
X110676Y94998D01*
X110747Y94959D01*
X110813Y94915D01*
X111085Y94771D01*
X111353Y94622D01*
X111427Y94590D01*
X111498Y94553D01*
X111783Y94438D01*
X112065Y94317D01*
X112142Y94294D01*
X112216Y94264D01*
X112511Y94179D01*
X112805Y94088D01*
X112883Y94072D01*
X112960Y94050D01*
X113262Y93996D01*
X113564Y93936D01*
X113627Y93931D01*
X113722Y93914D01*
X114495Y93858D01*
X114591Y93861D01*
X114655Y93856D01*
X114962Y93872D01*
X115269Y93881D01*
X115348Y93892D01*
X115428Y93896D01*
X115732Y93943D01*
X116036Y93984D01*
X116114Y94003D01*
X116193Y94016D01*
X116490Y94094D01*
X116789Y94166D01*
X116865Y94193D01*
X116942Y94213D01*
X117228Y94322D01*
X117519Y94424D01*
X117592Y94459D01*
X117666Y94487D01*
X117941Y94625D01*
X118218Y94757D01*
X118287Y94798D01*
X118358Y94834D01*
X118617Y95000D01*
X118880Y95159D01*
X118944Y95208D01*
X119011Y95251D01*
X119251Y95442D01*
X119496Y95628D01*
X119555Y95683D01*
X119617Y95733D01*
X119837Y95947D01*
X120061Y96158D01*
X120113Y96218D01*
X120171Y96274D01*
X120367Y96511D01*
X120568Y96743D01*
X120614Y96808D01*
X120665Y96870D01*
X120836Y97126D01*
X121012Y97377D01*
X121051Y97447D01*
X121096Y97514D01*
X121239Y97785D01*
X121388Y98054D01*
X121420Y98127D01*
X121457Y98198D01*
X121572Y98483D01*
X121693Y98766D01*
X121717Y98842D01*
X121747Y98916D01*
X121831Y99212D01*
X121923Y99505D01*
X121938Y99584D01*
X121960Y99661D01*
X122014Y99963D01*
X122075Y100264D01*
X122079Y100328D01*
X122096Y100423D01*
X122153Y101195D01*
X122150Y101292D01*
X122154Y101355D01*
X122154Y114608D01*
X122221Y114648D01*
X122240Y114663D01*
X122260Y114675D01*
X122549Y114895D01*
X122840Y115113D01*
X122857Y115129D01*
X122876Y115143D01*
X123142Y115393D01*
X123408Y115639D01*
X123424Y115657D01*
X123441Y115673D01*
X123678Y115947D01*
X123919Y116221D01*
X123933Y116240D01*
X123948Y116258D01*
X124156Y116555D01*
X124367Y116853D01*
X124379Y116873D01*
X124392Y116892D01*
X124568Y117210D01*
X124748Y117527D01*
X124757Y117548D01*
X124768Y117569D01*
X124912Y117905D01*
X125057Y118237D01*
X125064Y118259D01*
X125073Y118281D01*
X125181Y118628D01*
X125291Y118975D01*
X125295Y118998D01*
X125302Y119020D01*
X125373Y119375D01*
X125447Y119733D01*
X125450Y119756D01*
X125454Y119780D01*
X125461Y119863D01*
X125525Y120504D01*
X125525Y120739D01*
X125534Y120871D01*
X125534Y219863D01*
X127836Y225420D01*
X151593Y249177D01*
X151642Y249232D01*
X151696Y249282D01*
X151901Y249519D01*
X152111Y249752D01*
X152155Y249811D01*
X152203Y249867D01*
X152383Y250124D01*
X152568Y250377D01*
X152605Y250441D01*
X152647Y250501D01*
X152799Y250775D01*
X152957Y251046D01*
X152988Y251113D01*
X153023Y251178D01*
X153147Y251466D01*
X153276Y251752D01*
X153299Y251822D01*
X153328Y251890D01*
X153421Y252189D01*
X153520Y252487D01*
X153536Y252559D01*
X153557Y252629D01*
X153619Y252937D01*
X153687Y253243D01*
X153695Y253316D01*
X153709Y253388D01*
X153720Y253539D01*
X153775Y254012D01*
X153778Y254326D01*
X153789Y254480D01*
X153789Y264885D01*
X153788Y264909D01*
X153789Y264932D01*
X153768Y265294D01*
X153749Y265659D01*
X153746Y265682D01*
X153744Y265705D01*
X153686Y266063D01*
X153630Y266424D01*
X153624Y266446D01*
X153620Y266470D01*
X153525Y266821D01*
X153432Y267172D01*
X153424Y267194D01*
X153418Y267217D01*
X153288Y267554D01*
X153158Y267896D01*
X153148Y267917D01*
X153139Y267939D01*
X152974Y268264D01*
X152811Y268589D01*
X152799Y268608D01*
X152788Y268629D01*
X152589Y268936D01*
X152394Y269241D01*
X152380Y269260D01*
X152367Y269279D01*
X152139Y269563D01*
X151913Y269847D01*
X151896Y269864D01*
X151882Y269883D01*
X151626Y270141D01*
X151371Y270401D01*
X151353Y270416D01*
X151336Y270433D01*
X151056Y270662D01*
X151009Y270701D01*
X151009Y284480D01*
X151009Y298253D01*
X151095Y298317D01*
X151112Y298333D01*
X151131Y298347D01*
X151397Y298597D01*
X151663Y298843D01*
X151679Y298861D01*
X151696Y298877D01*
X151934Y299152D01*
X152174Y299425D01*
X152188Y299444D01*
X152203Y299462D01*
X152411Y299759D01*
X152622Y300057D01*
X152634Y300077D01*
X152647Y300096D01*
X152823Y300414D01*
X153003Y300731D01*
X153012Y300752D01*
X153023Y300773D01*
X153167Y301109D01*
X153312Y301441D01*
X153319Y301463D01*
X153328Y301485D01*
X153435Y301831D01*
X153546Y302179D01*
X153550Y302202D01*
X153557Y302224D01*
X153629Y302581D01*
X153702Y302937D01*
X153705Y302960D01*
X153709Y302984D01*
X153716Y303067D01*
X153780Y303708D01*
X153780Y303943D01*
X153789Y304075D01*
X153789Y349718D01*
X156091Y355275D01*
X169235Y368419D01*
X174792Y370721D01*
X282408Y370721D01*
X287965Y368419D01*
X309999Y346385D01*
X312301Y340828D01*
X312301Y124940D01*
X312305Y124866D01*
X312302Y124792D01*
X312325Y124479D01*
X312341Y124166D01*
X312352Y124094D01*
X312357Y124020D01*
X312412Y123711D01*
X312460Y123401D01*
X312479Y123330D01*
X312492Y123258D01*
X312578Y122955D01*
X312658Y122653D01*
X312684Y122584D01*
X312704Y122513D01*
X312821Y122221D01*
X312932Y121928D01*
X312965Y121863D01*
X312992Y121794D01*
X313138Y121517D01*
X313279Y121236D01*
X313319Y121174D01*
X313353Y121109D01*
X313527Y120848D01*
X313696Y120584D01*
X313741Y120526D01*
X313782Y120465D01*
X313880Y120351D01*
X314177Y119977D01*
X314397Y119753D01*
X314497Y119637D01*
X326647Y107487D01*
X326702Y107438D01*
X326752Y107384D01*
X326989Y107179D01*
X327222Y106969D01*
X327281Y106925D01*
X327337Y106877D01*
X327594Y106697D01*
X327847Y106512D01*
X327911Y106475D01*
X327971Y106433D01*
X328245Y106281D01*
X328516Y106123D01*
X328583Y106092D01*
X328648Y106057D01*
X328936Y105933D01*
X329222Y105804D01*
X329292Y105781D01*
X329360Y105752D01*
X329659Y105659D01*
X329957Y105560D01*
X330029Y105544D01*
X330099Y105523D01*
X330407Y105461D01*
X330713Y105393D01*
X330786Y105385D01*
X330858Y105371D01*
X331009Y105360D01*
X331482Y105305D01*
X331796Y105302D01*
X331950Y105291D01*
X512600Y105291D01*
X512674Y105295D01*
X512748Y105292D01*
X513061Y105315D01*
X513374Y105331D01*
X513446Y105342D01*
X513520Y105347D01*
X513829Y105402D01*
X514139Y105450D01*
X514210Y105469D01*
X514282Y105482D01*
X514584Y105568D01*
X514887Y105648D01*
X514956Y105674D01*
X515027Y105694D01*
X515319Y105811D01*
X515612Y105922D01*
X515677Y105955D01*
X515746Y105982D01*
X516023Y106128D01*
X516304Y106269D01*
X516366Y106309D01*
X516431Y106343D01*
X516692Y106517D01*
X516956Y106686D01*
X517014Y106731D01*
X517075Y106772D01*
X517189Y106870D01*
X517563Y107167D01*
X517787Y107387D01*
X517903Y107487D01*
X541483Y131067D01*
X541532Y131121D01*
X541586Y131172D01*
X541791Y131409D01*
X542001Y131642D01*
X542045Y131701D01*
X542093Y131757D01*
X542273Y132014D01*
X542458Y132267D01*
X542495Y132331D01*
X542537Y132391D01*
X542689Y132665D01*
X542847Y132936D01*
X542878Y133003D01*
X542913Y133068D01*
X543037Y133356D01*
X543166Y133642D01*
X543189Y133712D01*
X543218Y133780D01*
X543311Y134079D01*
X543410Y134377D01*
X543426Y134449D01*
X543447Y134519D01*
X543509Y134827D01*
X543577Y135133D01*
X543585Y135206D01*
X543599Y135278D01*
X543610Y135429D01*
X543665Y135902D01*
X543668Y136216D01*
X543679Y136369D01*
X543679Y422108D01*
X545981Y427665D01*
X551289Y432973D01*
X551290Y432974D01*
X595726Y477410D01*
X601035Y482719D01*
X606592Y485021D01*
X624328Y485021D01*
X624635Y485037D01*
X624942Y485046D01*
X625021Y485057D01*
X625101Y485061D01*
X625404Y485108D01*
X625709Y485149D01*
X625787Y485168D01*
X625866Y485180D01*
X626163Y485258D01*
X626462Y485331D01*
X626538Y485358D01*
X626615Y485378D01*
X626901Y485486D01*
X627192Y485589D01*
X627264Y485624D01*
X627339Y485652D01*
X627613Y485789D01*
X627891Y485921D01*
X627960Y485963D01*
X628031Y485999D01*
X628290Y486164D01*
X628553Y486324D01*
X628616Y486372D01*
X628684Y486416D01*
X628924Y486606D01*
X629169Y486793D01*
X629228Y486847D01*
X629290Y486897D01*
X629510Y487112D01*
X629734Y487322D01*
X629786Y487383D01*
X629844Y487439D01*
X630040Y487675D01*
X630241Y487907D01*
X630287Y487973D01*
X630338Y488035D01*
X630509Y488290D01*
X630685Y488542D01*
X630724Y488612D01*
X630769Y488678D01*
X630912Y488950D01*
X631061Y489218D01*
X631093Y489292D01*
X631130Y489363D01*
X631245Y489648D01*
X631366Y489930D01*
X631390Y490007D01*
X631420Y490081D01*
X631504Y490376D01*
X631595Y490670D01*
X631611Y490748D01*
X631633Y490825D01*
X631687Y491127D01*
X631747Y491429D01*
X631752Y491493D01*
X631769Y491588D01*
X631826Y492360D01*
X631823Y492456D01*
X631827Y492520D01*
X631827Y498512D01*
X634362Y504633D01*
X639047Y509318D01*
X645168Y511853D01*
X651792Y511853D01*
X657913Y509318D01*
X663497Y503733D01*
X663611Y503630D01*
X663719Y503521D01*
X663899Y503371D01*
X664072Y503215D01*
X664196Y503124D01*
X664315Y503026D01*
X664509Y502896D01*
X664698Y502758D01*
X664831Y502681D01*
X664958Y502596D01*
X665165Y502486D01*
X665367Y502369D01*
X665507Y502306D01*
X665643Y502234D01*
X665860Y502146D01*
X666073Y502050D01*
X666218Y502002D01*
X666361Y501944D01*
X666586Y501880D01*
X666808Y501806D01*
X666958Y501773D01*
X667105Y501731D01*
X667335Y501690D01*
X667564Y501639D01*
X667716Y501622D01*
X667868Y501595D01*
X668101Y501578D01*
X668333Y501551D01*
X668487Y501550D01*
X668640Y501539D01*
X668873Y501546D01*
X669107Y501543D01*
X669260Y501557D01*
X669414Y501562D01*
X669646Y501593D01*
X669878Y501615D01*
X670029Y501645D01*
X670181Y501665D01*
X670409Y501720D01*
X670638Y501765D01*
X670784Y501811D01*
X670934Y501847D01*
X671154Y501925D01*
X671378Y501994D01*
X671519Y502054D01*
X671664Y502105D01*
X671875Y502206D01*
X672090Y502297D01*
X672224Y502371D01*
X672363Y502437D01*
X672563Y502559D01*
X672767Y502672D01*
X672893Y502760D01*
X673025Y502840D01*
X673211Y502981D01*
X673402Y503115D01*
X673519Y503216D01*
X673641Y503309D01*
X673812Y503469D01*
X673988Y503621D01*
X674094Y503733D01*
X674206Y503838D01*
X674359Y504015D01*
X674519Y504185D01*
X674612Y504307D01*
X674713Y504423D01*
X674847Y504615D01*
X674989Y504801D01*
X675069Y504932D01*
X675157Y505058D01*
X675271Y505262D01*
X675392Y505461D01*
X675459Y505600D01*
X675533Y505734D01*
X675625Y505949D01*
X675726Y506160D01*
X675777Y506305D01*
X675838Y506446D01*
X675907Y506670D01*
X675986Y506890D01*
X676022Y507039D01*
X676067Y507186D01*
X676113Y507415D01*
X676169Y507642D01*
X676189Y507794D01*
X676219Y507945D01*
X676231Y508099D01*
X676273Y508409D01*
X676288Y508886D01*
X676299Y509036D01*
X676299Y556510D01*
X676295Y556584D01*
X676298Y556658D01*
X676275Y556971D01*
X676259Y557284D01*
X676248Y557356D01*
X676243Y557430D01*
X676188Y557739D01*
X676140Y558049D01*
X676121Y558120D01*
X676108Y558192D01*
X676022Y558495D01*
X675942Y558797D01*
X675916Y558866D01*
X675896Y558937D01*
X675779Y559229D01*
X675668Y559522D01*
X675635Y559587D01*
X675608Y559656D01*
X675462Y559933D01*
X675321Y560214D01*
X675281Y560276D01*
X675247Y560341D01*
X675073Y560602D01*
X674904Y560866D01*
X674859Y560924D01*
X674818Y560985D01*
X674720Y561099D01*
X674423Y561473D01*
X674203Y561697D01*
X674103Y561813D01*
X611883Y624033D01*
X611828Y624082D01*
X611778Y624136D01*
X611541Y624341D01*
X611308Y624551D01*
X611249Y624595D01*
X611193Y624643D01*
X610936Y624823D01*
X610683Y625008D01*
X610619Y625045D01*
X610559Y625087D01*
X610285Y625239D01*
X610014Y625397D01*
X609947Y625428D01*
X609882Y625463D01*
X609594Y625587D01*
X609308Y625716D01*
X609238Y625739D01*
X609170Y625768D01*
X608871Y625861D01*
X608573Y625960D01*
X608501Y625976D01*
X608431Y625997D01*
X608123Y626059D01*
X607817Y626127D01*
X607744Y626135D01*
X607672Y626149D01*
X607521Y626160D01*
X607048Y626215D01*
X606734Y626218D01*
X606580Y626229D01*
X549442Y626229D01*
X543885Y628531D01*
X538576Y633840D01*
X525890Y646526D01*
X520581Y651835D01*
X518279Y657392D01*
X518279Y676108D01*
X520581Y681665D01*
X524835Y685919D01*
X530392Y688221D01*
X536408Y688221D01*
X543230Y685395D01*
X543300Y685370D01*
X543367Y685340D01*
X543664Y685241D01*
X543960Y685136D01*
X544031Y685118D01*
X544101Y685095D01*
X544408Y685027D01*
X544712Y684953D01*
X544785Y684944D01*
X544857Y684928D01*
X545169Y684892D01*
X545480Y684850D01*
X545553Y684847D01*
X545626Y684839D01*
X545939Y684835D01*
X546254Y684825D01*
X546327Y684831D01*
X546401Y684830D01*
X546713Y684859D01*
X547026Y684881D01*
X547098Y684894D01*
X547172Y684901D01*
X547479Y684962D01*
X547788Y685016D01*
X547859Y685037D01*
X547931Y685051D01*
X548074Y685098D01*
X548533Y685229D01*
X548824Y685346D01*
X548970Y685395D01*
X555792Y688221D01*
X625308Y688221D01*
X630865Y685919D01*
X636174Y680610D01*
X711517Y605267D01*
X711631Y605164D01*
X711739Y605054D01*
X711919Y604904D01*
X712092Y604748D01*
X712216Y604658D01*
X712335Y604559D01*
X712529Y604429D01*
X712718Y604292D01*
X712851Y604214D01*
X712978Y604129D01*
X713185Y604020D01*
X713387Y603902D01*
X713527Y603839D01*
X713663Y603767D01*
X713880Y603680D01*
X714093Y603584D01*
X714239Y603535D01*
X714381Y603478D01*
X714606Y603413D01*
X714828Y603340D01*
X714978Y603307D01*
X715125Y603264D01*
X715355Y603223D01*
X715584Y603173D01*
X715736Y603155D01*
X715888Y603128D01*
X716121Y603111D01*
X716353Y603085D01*
X716507Y603083D01*
X716660Y603072D01*
X716893Y603079D01*
X717127Y603076D01*
X717280Y603091D01*
X717434Y603095D01*
X717666Y603127D01*
X717898Y603148D01*
X718049Y603178D01*
X718201Y603198D01*
X718429Y603253D01*
X718658Y603299D01*
X718804Y603344D01*
X718954Y603380D01*
X719174Y603458D01*
X719398Y603527D01*
X719539Y603587D01*
X719684Y603639D01*
X719895Y603739D01*
X720110Y603830D01*
X720244Y603905D01*
X720383Y603971D01*
X720583Y604092D01*
X720787Y604206D01*
X720914Y604294D01*
X721045Y604373D01*
X721231Y604515D01*
X721422Y604649D01*
X721539Y604749D01*
X721661Y604842D01*
X721832Y605002D01*
X722008Y605155D01*
X722114Y605267D01*
X722226Y605372D01*
X722379Y605548D01*
X722539Y605719D01*
X722632Y605841D01*
X722733Y605957D01*
X722867Y606148D01*
X723009Y606334D01*
X723089Y606465D01*
X723177Y606591D01*
X723291Y606795D01*
X723412Y606995D01*
X723479Y607133D01*
X723553Y607268D01*
X723645Y607483D01*
X723746Y607694D01*
X723797Y607838D01*
X723858Y607980D01*
X723927Y608203D01*
X724006Y608423D01*
X724042Y608572D01*
X724087Y608719D01*
X724133Y608949D01*
X724189Y609175D01*
X724209Y609327D01*
X724239Y609478D01*
X724251Y609632D01*
X724293Y609943D01*
X724308Y610420D01*
X724319Y610569D01*
X724319Y667720D01*
X724315Y667794D01*
X724318Y667868D01*
X724295Y668181D01*
X724279Y668494D01*
X724268Y668566D01*
X724263Y668640D01*
X724208Y668949D01*
X724160Y669259D01*
X724141Y669330D01*
X724128Y669402D01*
X724042Y669705D01*
X723962Y670007D01*
X723936Y670076D01*
X723916Y670147D01*
X723799Y670439D01*
X723688Y670732D01*
X723655Y670797D01*
X723628Y670866D01*
X723482Y671143D01*
X723341Y671424D01*
X723301Y671486D01*
X723267Y671551D01*
X723093Y671812D01*
X722924Y672076D01*
X722879Y672134D01*
X722838Y672195D01*
X722740Y672309D01*
X722443Y672683D01*
X722223Y672907D01*
X722123Y673023D01*
X640603Y754543D01*
X640548Y754592D01*
X640498Y754646D01*
X640261Y754851D01*
X640028Y755061D01*
X639969Y755105D01*
X639913Y755153D01*
X639656Y755333D01*
X639403Y755518D01*
X639339Y755555D01*
X639279Y755597D01*
X639005Y755749D01*
X638734Y755907D01*
X638667Y755938D01*
X638602Y755973D01*
X638314Y756097D01*
X638028Y756226D01*
X637958Y756249D01*
X637890Y756278D01*
X637591Y756371D01*
X637293Y756470D01*
X637221Y756486D01*
X637151Y756507D01*
X636843Y756569D01*
X636537Y756637D01*
X636464Y756645D01*
X636392Y756659D01*
X636241Y756670D01*
X635768Y756725D01*
X635454Y756728D01*
X635300Y756739D01*
X515540Y756739D01*
X515466Y756735D01*
X515392Y756738D01*
X515079Y756715D01*
X514766Y756699D01*
X514694Y756688D01*
X514620Y756683D01*
X514311Y756628D01*
X514001Y756580D01*
X513930Y756561D01*
X513858Y756548D01*
X513555Y756462D01*
X513253Y756382D01*
X513184Y756356D01*
X513113Y756336D01*
X512821Y756219D01*
X512528Y756108D01*
X512463Y756075D01*
X512394Y756048D01*
X512117Y755902D01*
X511836Y755761D01*
X511774Y755721D01*
X511709Y755687D01*
X511448Y755513D01*
X511184Y755344D01*
X511126Y755299D01*
X511065Y755258D01*
X510951Y755160D01*
X510577Y754863D01*
X510353Y754643D01*
X510237Y754543D01*
X487217Y731523D01*
X487168Y731468D01*
X487114Y731418D01*
X486909Y731181D01*
X486699Y730948D01*
X486655Y730889D01*
X486607Y730833D01*
X486427Y730576D01*
X486242Y730323D01*
X486205Y730259D01*
X486163Y730199D01*
X486011Y729925D01*
X485853Y729654D01*
X485822Y729587D01*
X485787Y729522D01*
X485663Y729234D01*
X485534Y728948D01*
X485511Y728878D01*
X485482Y728810D01*
X485389Y728511D01*
X485290Y728213D01*
X485274Y728141D01*
X485253Y728071D01*
X485191Y727763D01*
X485123Y727457D01*
X485115Y727384D01*
X485101Y727312D01*
X485090Y727161D01*
X485035Y726688D01*
X485032Y726374D01*
X485021Y726220D01*
X485021Y708192D01*
X482719Y702635D01*
X478465Y698381D01*
X472908Y696079D01*
X466892Y696079D01*
X460117Y698886D01*
X459754Y699014D01*
X459393Y699143D01*
X459390Y699144D01*
X459387Y699145D01*
X459028Y699232D01*
X458641Y699326D01*
X458638Y699326D01*
X458635Y699327D01*
X458250Y699379D01*
X457874Y699430D01*
X457871Y699430D01*
X457867Y699431D01*
X457468Y699443D01*
X457100Y699455D01*
X457097Y699455D01*
X457093Y699455D01*
X456714Y699428D01*
X456327Y699400D01*
X456324Y699399D01*
X456321Y699399D01*
X455952Y699334D01*
X455565Y699266D01*
X455562Y699265D01*
X455559Y699264D01*
X455206Y699163D01*
X454820Y699053D01*
X454817Y699052D01*
X454814Y699051D01*
X454482Y698918D01*
X454102Y698765D01*
X454099Y698764D01*
X454096Y698762D01*
X453755Y698583D01*
X453416Y698405D01*
X453414Y698403D01*
X453411Y698401D01*
X453082Y698182D01*
X452772Y697975D01*
X452770Y697973D01*
X452767Y697971D01*
X452171Y697477D01*
X452032Y697337D01*
X451944Y697260D01*
X423717Y669033D01*
X423668Y668978D01*
X423614Y668928D01*
X423409Y668691D01*
X423199Y668458D01*
X423155Y668399D01*
X423107Y668343D01*
X422927Y668086D01*
X422742Y667833D01*
X422705Y667769D01*
X422663Y667709D01*
X422511Y667435D01*
X422353Y667164D01*
X422322Y667097D01*
X422287Y667032D01*
X422163Y666744D01*
X422034Y666458D01*
X422011Y666388D01*
X421982Y666320D01*
X421889Y666021D01*
X421790Y665723D01*
X421774Y665651D01*
X421753Y665581D01*
X421691Y665273D01*
X421623Y664967D01*
X421615Y664894D01*
X421601Y664822D01*
X421590Y664671D01*
X421535Y664198D01*
X421532Y663884D01*
X421521Y663730D01*
X421521Y651509D01*
X421529Y651356D01*
X421527Y651202D01*
X421549Y650969D01*
X421561Y650736D01*
X421584Y650584D01*
X421599Y650431D01*
X421644Y650202D01*
X421680Y649971D01*
X421719Y649823D01*
X421749Y649672D01*
X421818Y649448D01*
X421878Y649223D01*
X421932Y649079D01*
X421978Y648932D01*
X422069Y648717D01*
X422152Y648498D01*
X422221Y648361D01*
X422281Y648219D01*
X422394Y648015D01*
X422499Y647806D01*
X422582Y647677D01*
X422656Y647542D01*
X422790Y647350D01*
X422916Y647153D01*
X423011Y647033D01*
X423099Y646907D01*
X423252Y646730D01*
X423397Y646547D01*
X423505Y646437D01*
X423605Y646321D01*
X423775Y646161D01*
X423939Y645994D01*
X424057Y645896D01*
X424169Y645790D01*
X424355Y645649D01*
X424535Y645499D01*
X424663Y645414D01*
X424785Y645321D01*
X424984Y645199D01*
X425178Y645069D01*
X425314Y644997D01*
X425445Y644917D01*
X425656Y644816D01*
X425863Y644707D01*
X426005Y644650D01*
X426144Y644584D01*
X426364Y644505D01*
X426581Y644418D01*
X426729Y644375D01*
X426874Y644324D01*
X427101Y644269D01*
X427325Y644204D01*
X427476Y644177D01*
X427626Y644141D01*
X427858Y644109D01*
X428088Y644068D01*
X428241Y644057D01*
X428393Y644036D01*
X428627Y644029D01*
X428860Y644012D01*
X429013Y644017D01*
X429167Y644012D01*
X429400Y644028D01*
X429634Y644035D01*
X429786Y644056D01*
X429939Y644067D01*
X430169Y644107D01*
X430401Y644138D01*
X430551Y644175D01*
X430702Y644201D01*
X430927Y644265D01*
X431154Y644320D01*
X431299Y644372D01*
X431447Y644414D01*
X431663Y644500D01*
X431884Y644579D01*
X432023Y644645D01*
X432165Y644702D01*
X432372Y644810D01*
X432583Y644911D01*
X432714Y644991D01*
X432851Y645062D01*
X433045Y645192D01*
X433245Y645313D01*
X433367Y645406D01*
X433495Y645492D01*
X433611Y645592D01*
X433861Y645782D01*
X434209Y646108D01*
X434323Y646207D01*
X435935Y647819D01*
X441492Y650121D01*
X447508Y650121D01*
X454330Y647295D01*
X454400Y647270D01*
X454467Y647240D01*
X454764Y647141D01*
X455060Y647036D01*
X455131Y647018D01*
X455201Y646995D01*
X455508Y646927D01*
X455812Y646853D01*
X455885Y646844D01*
X455957Y646828D01*
X456269Y646792D01*
X456580Y646750D01*
X456653Y646747D01*
X456726Y646739D01*
X457039Y646735D01*
X457354Y646725D01*
X457427Y646731D01*
X457501Y646730D01*
X457813Y646759D01*
X458126Y646781D01*
X458198Y646794D01*
X458272Y646801D01*
X458579Y646862D01*
X458888Y646916D01*
X458959Y646937D01*
X459031Y646951D01*
X459174Y646998D01*
X459633Y647129D01*
X459924Y647246D01*
X460070Y647295D01*
X466892Y650121D01*
X472908Y650121D01*
X478465Y647819D01*
X482719Y643565D01*
X485021Y638008D01*
X485021Y606270D01*
X485025Y606196D01*
X485022Y606122D01*
X485045Y605809D01*
X485061Y605496D01*
X485072Y605424D01*
X485077Y605350D01*
X485132Y605040D01*
X485180Y604731D01*
X485199Y604660D01*
X485212Y604588D01*
X485298Y604285D01*
X485378Y603983D01*
X485404Y603914D01*
X485424Y603843D01*
X485541Y603551D01*
X485652Y603258D01*
X485685Y603193D01*
X485712Y603124D01*
X485858Y602847D01*
X485999Y602566D01*
X486039Y602504D01*
X486073Y602439D01*
X486247Y602178D01*
X486416Y601914D01*
X486461Y601856D01*
X486502Y601795D01*
X486600Y601681D01*
X486897Y601307D01*
X487117Y601083D01*
X487217Y600967D01*
X508119Y580065D01*
X510421Y574508D01*
X510421Y237713D01*
X508119Y232156D01*
X502811Y226848D01*
X502810Y226847D01*
X455348Y179385D01*
X455276Y179351D01*
X455147Y179272D01*
X455014Y179202D01*
X454816Y179070D01*
X454615Y178947D01*
X454495Y178856D01*
X454369Y178773D01*
X454252Y178671D01*
X453999Y178478D01*
X453656Y178157D01*
X453542Y178058D01*
X453065Y177581D01*
X447508Y175279D01*
X420276Y175279D01*
X420252Y175278D01*
X420229Y175279D01*
X419868Y175258D01*
X419503Y175239D01*
X419479Y175236D01*
X419456Y175234D01*
X419098Y175176D01*
X418738Y175120D01*
X418715Y175114D01*
X418692Y175110D01*
X418340Y175015D01*
X417989Y174922D01*
X417967Y174914D01*
X417944Y174908D01*
X417605Y174777D01*
X417265Y174648D01*
X417244Y174638D01*
X417222Y174629D01*
X416897Y174464D01*
X416573Y174301D01*
X416553Y174289D01*
X416532Y174278D01*
X416225Y174079D01*
X415920Y173884D01*
X415902Y173870D01*
X415882Y173857D01*
X415598Y173629D01*
X415314Y173403D01*
X415297Y173386D01*
X415279Y173372D01*
X415020Y173116D01*
X414760Y172861D01*
X414745Y172843D01*
X414729Y172826D01*
X414499Y172546D01*
X414460Y172499D01*
X400780Y172499D01*
X390532Y172499D01*
X390567Y172755D01*
X390613Y173037D01*
X390619Y173138D01*
X390633Y173238D01*
X390642Y173524D01*
X390659Y173810D01*
X390654Y173911D01*
X390657Y174012D01*
X390637Y174298D01*
X390624Y174584D01*
X390609Y174683D01*
X390602Y174784D01*
X390552Y175067D01*
X390510Y175350D01*
X390485Y175447D01*
X390468Y175546D01*
X390389Y175822D01*
X390318Y176100D01*
X390283Y176194D01*
X390255Y176291D01*
X390148Y176558D01*
X390049Y176826D01*
X390005Y176916D01*
X389967Y177010D01*
X389834Y177264D01*
X389707Y177521D01*
X389653Y177606D01*
X389607Y177695D01*
X389448Y177933D01*
X389295Y178176D01*
X389233Y178256D01*
X389177Y178339D01*
X389073Y178460D01*
X388818Y178786D01*
X388567Y179046D01*
X388462Y179167D01*
X386662Y180967D01*
X384127Y187088D01*
X384127Y193712D01*
X386827Y200230D01*
X386852Y200299D01*
X386882Y200367D01*
X386981Y200665D01*
X387086Y200960D01*
X387103Y201031D01*
X387127Y201101D01*
X387194Y201407D01*
X387268Y201712D01*
X387278Y201785D01*
X387294Y201857D01*
X387330Y202168D01*
X387372Y202480D01*
X387374Y202553D01*
X387383Y202626D01*
X387386Y202940D01*
X387396Y203254D01*
X387391Y203327D01*
X387392Y203401D01*
X387363Y203712D01*
X387340Y204026D01*
X387328Y204098D01*
X387321Y204172D01*
X387260Y204480D01*
X387205Y204788D01*
X387185Y204859D01*
X387171Y204931D01*
X387124Y205074D01*
X386992Y205533D01*
X386875Y205824D01*
X386827Y205970D01*
X386521Y206709D01*
X386369Y207028D01*
X386220Y207349D01*
X386205Y207372D01*
X386188Y207408D01*
X385785Y208069D01*
X385690Y208193D01*
X385638Y208276D01*
X385570Y208369D01*
X385325Y209369D01*
X385318Y209392D01*
X385313Y209415D01*
X385287Y209494D01*
X385102Y210111D01*
X385011Y210328D01*
X384970Y210454D01*
X384127Y212488D01*
X384127Y213349D01*
X384109Y213703D01*
X384094Y214056D01*
X384091Y214074D01*
X384118Y214346D01*
X384118Y214582D01*
X384127Y214713D01*
X384127Y218580D01*
X384111Y218886D01*
X384102Y219194D01*
X384091Y219273D01*
X384087Y219353D01*
X384040Y219656D01*
X383999Y219961D01*
X383980Y220039D01*
X383968Y220118D01*
X383890Y220415D01*
X383817Y220714D01*
X383790Y220790D01*
X383770Y220867D01*
X383662Y221153D01*
X383559Y221444D01*
X383524Y221516D01*
X383496Y221591D01*
X383359Y221865D01*
X383227Y222143D01*
X383185Y222212D01*
X383149Y222283D01*
X382984Y222542D01*
X382824Y222805D01*
X382776Y222868D01*
X382732Y222936D01*
X382542Y223176D01*
X382355Y223421D01*
X382301Y223479D01*
X382251Y223542D01*
X382036Y223762D01*
X381826Y223986D01*
X381765Y224038D01*
X381709Y224096D01*
X381472Y224292D01*
X381241Y224493D01*
X381175Y224539D01*
X381113Y224590D01*
X380858Y224761D01*
X380606Y224937D01*
X380536Y224976D01*
X380470Y225021D01*
X380198Y225164D01*
X379930Y225313D01*
X379856Y225345D01*
X379785Y225382D01*
X379500Y225497D01*
X379218Y225618D01*
X379141Y225642D01*
X379067Y225672D01*
X378772Y225756D01*
X378478Y225847D01*
X378400Y225863D01*
X378323Y225885D01*
X378021Y225939D01*
X377719Y225999D01*
X377655Y226004D01*
X377560Y226021D01*
X376788Y226078D01*
X376692Y226075D01*
X376628Y226079D01*
X366090Y226079D01*
X365783Y226063D01*
X365476Y226054D01*
X365397Y226043D01*
X365317Y226039D01*
X365014Y225992D01*
X364709Y225951D01*
X364631Y225932D01*
X364552Y225920D01*
X364255Y225842D01*
X363956Y225769D01*
X363880Y225742D01*
X363803Y225722D01*
X363517Y225614D01*
X363226Y225511D01*
X363154Y225476D01*
X363079Y225448D01*
X362805Y225311D01*
X362527Y225179D01*
X362458Y225137D01*
X362387Y225101D01*
X362128Y224936D01*
X361865Y224776D01*
X361802Y224728D01*
X361734Y224684D01*
X361494Y224494D01*
X361249Y224307D01*
X361190Y224253D01*
X361128Y224203D01*
X360908Y223988D01*
X360684Y223778D01*
X360632Y223717D01*
X360574Y223661D01*
X360378Y223424D01*
X360177Y223193D01*
X360131Y223127D01*
X360080Y223065D01*
X359909Y222810D01*
X359733Y222558D01*
X359694Y222488D01*
X359649Y222422D01*
X359506Y222150D01*
X359357Y221882D01*
X359325Y221808D01*
X359288Y221737D01*
X359173Y221452D01*
X359052Y221170D01*
X359028Y221093D01*
X358998Y221019D01*
X358914Y220724D01*
X358823Y220430D01*
X358807Y220352D01*
X358785Y220275D01*
X358731Y219973D01*
X358671Y219671D01*
X358666Y219607D01*
X358649Y219512D01*
X358592Y218740D01*
X358595Y218644D01*
X358591Y218580D01*
X358591Y172070D01*
X358595Y171996D01*
X358592Y171922D01*
X358615Y171609D01*
X358631Y171296D01*
X358642Y171224D01*
X358647Y171150D01*
X358702Y170841D01*
X358750Y170531D01*
X358769Y170460D01*
X358782Y170388D01*
X358868Y170085D01*
X358948Y169783D01*
X358974Y169714D01*
X358994Y169643D01*
X359111Y169351D01*
X359222Y169058D01*
X359255Y168993D01*
X359282Y168924D01*
X359428Y168647D01*
X359569Y168366D01*
X359609Y168304D01*
X359643Y168239D01*
X359817Y167978D01*
X359986Y167714D01*
X360031Y167656D01*
X360072Y167595D01*
X360170Y167481D01*
X360467Y167107D01*
X360687Y166883D01*
X360787Y166767D01*
X370637Y156917D01*
X370692Y156868D01*
X370742Y156814D01*
X370979Y156609D01*
X371212Y156399D01*
X371271Y156355D01*
X371327Y156307D01*
X371584Y156127D01*
X371837Y155942D01*
X371901Y155905D01*
X371961Y155863D01*
X372235Y155711D01*
X372506Y155553D01*
X372573Y155522D01*
X372638Y155487D01*
X372926Y155363D01*
X373212Y155234D01*
X373282Y155211D01*
X373350Y155182D01*
X373649Y155089D01*
X373947Y154990D01*
X374019Y154974D01*
X374089Y154953D01*
X374397Y154891D01*
X374703Y154823D01*
X374776Y154815D01*
X374848Y154801D01*
X374999Y154790D01*
X375472Y154735D01*
X375786Y154732D01*
X375940Y154721D01*
X381284Y154721D01*
X381308Y154722D01*
X381331Y154721D01*
X381692Y154742D01*
X382057Y154761D01*
X382081Y154764D01*
X382104Y154766D01*
X382462Y154824D01*
X382822Y154880D01*
X382845Y154886D01*
X382868Y154890D01*
X383220Y154985D01*
X383571Y155078D01*
X383593Y155086D01*
X383616Y155092D01*
X383955Y155223D01*
X384295Y155352D01*
X384316Y155362D01*
X384338Y155371D01*
X384663Y155536D01*
X384987Y155699D01*
X385007Y155711D01*
X385028Y155722D01*
X385335Y155921D01*
X385640Y156116D01*
X385658Y156130D01*
X385678Y156143D01*
X385962Y156371D01*
X386246Y156597D01*
X386263Y156614D01*
X386281Y156628D01*
X386540Y156884D01*
X386800Y157139D01*
X386815Y157157D01*
X386831Y157174D01*
X387061Y157454D01*
X387100Y157501D01*
X400780Y157501D01*
X411028Y157501D01*
X410993Y157245D01*
X410947Y156963D01*
X410941Y156862D01*
X410927Y156762D01*
X410918Y156476D01*
X410901Y156190D01*
X410906Y156089D01*
X410903Y155988D01*
X410923Y155702D01*
X410936Y155416D01*
X410951Y155317D01*
X410958Y155216D01*
X411008Y154933D01*
X411050Y154650D01*
X411075Y154553D01*
X411092Y154454D01*
X411171Y154178D01*
X411242Y153900D01*
X411277Y153806D01*
X411305Y153709D01*
X411412Y153442D01*
X411511Y153174D01*
X411555Y153084D01*
X411593Y152990D01*
X411726Y152736D01*
X411853Y152479D01*
X411907Y152394D01*
X411953Y152305D01*
X412112Y152067D01*
X412265Y151824D01*
X412327Y151744D01*
X412383Y151661D01*
X412487Y151540D01*
X412742Y151214D01*
X412993Y150954D01*
X413098Y150833D01*
X414898Y149033D01*
X417433Y142912D01*
X417433Y136288D01*
X414898Y130167D01*
X410213Y125482D01*
X404092Y122947D01*
X397468Y122947D01*
X395147Y123908D01*
X395005Y123959D01*
X394867Y124018D01*
X394641Y124088D01*
X394417Y124167D01*
X394271Y124203D01*
X394128Y124247D01*
X393895Y124294D01*
X393665Y124350D01*
X393516Y124370D01*
X393368Y124399D01*
X393214Y124411D01*
X392898Y124454D01*
X392429Y124468D01*
X392277Y124479D01*
X363562Y124479D01*
X358005Y126781D01*
X330651Y154135D01*
X328349Y159692D01*
X328349Y353280D01*
X328345Y353354D01*
X328348Y353428D01*
X328325Y353741D01*
X328309Y354054D01*
X328298Y354126D01*
X328293Y354200D01*
X328238Y354509D01*
X328190Y354819D01*
X328171Y354890D01*
X328158Y354962D01*
X328072Y355265D01*
X327992Y355567D01*
X327966Y355636D01*
X327946Y355707D01*
X327829Y355999D01*
X327718Y356292D01*
X327685Y356357D01*
X327658Y356426D01*
X327512Y356703D01*
X327371Y356984D01*
X327331Y357046D01*
X327297Y357111D01*
X327123Y357372D01*
X326954Y357636D01*
X326909Y357694D01*
X326868Y357755D01*
X326770Y357869D01*
X326473Y358243D01*
X326253Y358467D01*
X326153Y358583D01*
X265485Y419251D01*
X265431Y419300D01*
X265380Y419354D01*
X265143Y419559D01*
X264910Y419769D01*
X264851Y419812D01*
X264795Y419861D01*
X264538Y420041D01*
X264285Y420226D01*
X264221Y420263D01*
X264161Y420305D01*
X263887Y420457D01*
X263616Y420615D01*
X263549Y420645D01*
X263484Y420681D01*
X263196Y420805D01*
X262910Y420934D01*
X262840Y420957D01*
X262772Y420986D01*
X262473Y421079D01*
X262175Y421178D01*
X262103Y421193D01*
X262033Y421215D01*
X261725Y421277D01*
X261419Y421344D01*
X261346Y421353D01*
X261274Y421367D01*
X261124Y421378D01*
X260650Y421433D01*
X260336Y421436D01*
X260183Y421447D01*
X73192Y421447D01*
X67635Y423749D01*
X50681Y440703D01*
X48379Y446260D01*
X48379Y574508D01*
X50681Y580065D01*
X55989Y585373D01*
X55990Y585374D01*
X75026Y604410D01*
X75027Y604411D01*
X80335Y609719D01*
X85892Y612021D01*
X136285Y612021D01*
X136618Y612038D01*
X136952Y612050D01*
X137005Y612058D01*
X137058Y612061D01*
X137388Y612112D01*
X137719Y612159D01*
X137771Y612172D01*
X137823Y612180D01*
X138146Y612265D01*
X138470Y612346D01*
X138520Y612364D01*
X138572Y612378D01*
X138884Y612496D01*
X139198Y612610D01*
X139246Y612633D01*
X139296Y612652D01*
X139595Y612801D01*
X139895Y612947D01*
X139941Y612975D01*
X139988Y612999D01*
X140270Y613179D01*
X140554Y613354D01*
X140596Y613387D01*
X140641Y613416D01*
X140902Y613623D01*
X141167Y613827D01*
X141206Y613864D01*
X141247Y613897D01*
X141486Y614131D01*
X141728Y614361D01*
X141762Y614401D01*
X141801Y614439D01*
X142014Y614696D01*
X142231Y614950D01*
X142261Y614994D01*
X142295Y615035D01*
X142481Y615312D01*
X142670Y615587D01*
X142696Y615634D01*
X142726Y615678D01*
X142882Y615974D01*
X143042Y616266D01*
X143062Y616316D01*
X143087Y616363D01*
X143213Y616674D01*
X143341Y616980D01*
X143357Y617031D01*
X143377Y617081D01*
X143469Y617402D01*
X143566Y617722D01*
X143576Y617774D01*
X143590Y617825D01*
X143649Y618154D01*
X143712Y618482D01*
X143717Y618535D01*
X143726Y618588D01*
X143751Y618921D01*
X143780Y619253D01*
X143779Y619307D01*
X143783Y619360D01*
X143773Y619693D01*
X143767Y620027D01*
X143761Y620080D01*
X143759Y620134D01*
X143715Y620465D01*
X143675Y620796D01*
X143663Y620848D01*
X143656Y620901D01*
X143578Y621226D01*
X143504Y621551D01*
X143487Y621602D01*
X143474Y621654D01*
X143363Y621970D01*
X143256Y622285D01*
X143237Y622324D01*
X143216Y622384D01*
X142884Y623083D01*
X142816Y623195D01*
X142780Y623270D01*
X141233Y625948D01*
X139859Y631076D01*
X139859Y636384D01*
X141233Y641512D01*
X143887Y646109D01*
X147641Y649863D01*
X152238Y652517D01*
X157366Y653891D01*
X162674Y653891D01*
X167802Y652517D01*
X169330Y651634D01*
X169628Y651482D01*
X169923Y651326D01*
X169973Y651306D01*
X170020Y651282D01*
X170331Y651162D01*
X170641Y651037D01*
X170692Y651022D01*
X170742Y651003D01*
X171065Y650915D01*
X171385Y650824D01*
X171438Y650814D01*
X171489Y650800D01*
X171819Y650746D01*
X172148Y650688D01*
X172201Y650684D01*
X172254Y650675D01*
X172587Y650656D01*
X172920Y650631D01*
X172973Y650633D01*
X173027Y650630D01*
X173360Y650645D01*
X173694Y650655D01*
X173747Y650662D01*
X173800Y650664D01*
X174129Y650713D01*
X174461Y650758D01*
X174513Y650770D01*
X174566Y650778D01*
X174888Y650861D01*
X175214Y650940D01*
X175265Y650957D01*
X175316Y650971D01*
X175628Y651086D01*
X175944Y651198D01*
X175992Y651221D01*
X176042Y651239D01*
X176341Y651387D01*
X176643Y651530D01*
X176689Y651558D01*
X176737Y651581D01*
X177020Y651759D01*
X177305Y651933D01*
X177347Y651965D01*
X177392Y651993D01*
X177655Y652199D01*
X177921Y652401D01*
X177960Y652438D01*
X178002Y652471D01*
X178242Y652703D01*
X178486Y652931D01*
X178521Y652971D01*
X178559Y653008D01*
X178774Y653264D01*
X178993Y653516D01*
X179024Y653560D01*
X179058Y653601D01*
X179245Y653877D01*
X179437Y654150D01*
X179463Y654197D01*
X179493Y654241D01*
X179651Y654535D01*
X179813Y654827D01*
X179834Y654876D01*
X179860Y654923D01*
X179986Y655232D01*
X180118Y655539D01*
X180134Y655590D01*
X180154Y655639D01*
X180248Y655960D01*
X180347Y656279D01*
X180358Y656331D01*
X180373Y656382D01*
X180434Y656710D01*
X180499Y657038D01*
X180503Y657081D01*
X180514Y657143D01*
X180576Y657915D01*
X180573Y658046D01*
X180579Y658129D01*
X180579Y664154D01*
X183312Y670750D01*
X183336Y670819D01*
X183367Y670887D01*
X183466Y671185D01*
X183571Y671480D01*
X183588Y671551D01*
X183611Y671621D01*
X183679Y671928D01*
X183753Y672232D01*
X183763Y672305D01*
X183779Y672377D01*
X183815Y672689D01*
X183857Y673000D01*
X183859Y673073D01*
X183868Y673146D01*
X183871Y673459D01*
X183881Y673774D01*
X183876Y673847D01*
X183876Y673921D01*
X183848Y674233D01*
X183825Y674546D01*
X183812Y674618D01*
X183806Y674692D01*
X183745Y675000D01*
X183690Y675308D01*
X183670Y675379D01*
X183655Y675451D01*
X183608Y675595D01*
X183477Y676053D01*
X183360Y676344D01*
X183312Y676490D01*
X180579Y683086D01*
X180579Y686801D01*
X180562Y687134D01*
X180550Y687468D01*
X180542Y687521D01*
X180539Y687575D01*
X180488Y687905D01*
X180441Y688235D01*
X180428Y688287D01*
X180420Y688340D01*
X180335Y688662D01*
X180254Y688986D01*
X180236Y689037D01*
X180222Y689088D01*
X180104Y689400D01*
X179990Y689714D01*
X179967Y689762D01*
X179948Y689812D01*
X179798Y690111D01*
X179653Y690411D01*
X179625Y690457D01*
X179601Y690505D01*
X179421Y690786D01*
X179246Y691070D01*
X179213Y691112D01*
X179184Y691157D01*
X178977Y691418D01*
X178773Y691683D01*
X178736Y691722D01*
X178703Y691763D01*
X178469Y692002D01*
X178239Y692244D01*
X178199Y692279D01*
X178161Y692317D01*
X177904Y692530D01*
X177650Y692747D01*
X177606Y692777D01*
X177565Y692811D01*
X177288Y692997D01*
X177013Y693186D01*
X176966Y693212D01*
X176922Y693242D01*
X176627Y693398D01*
X176334Y693558D01*
X176284Y693579D01*
X176237Y693604D01*
X175927Y693728D01*
X175620Y693857D01*
X175568Y693873D01*
X175519Y693893D01*
X175199Y693985D01*
X174878Y694082D01*
X174826Y694092D01*
X174775Y694106D01*
X174447Y694165D01*
X174118Y694228D01*
X174065Y694233D01*
X174012Y694242D01*
X173680Y694267D01*
X173347Y694296D01*
X173293Y694295D01*
X173240Y694299D01*
X172907Y694289D01*
X172573Y694283D01*
X172520Y694277D01*
X172466Y694275D01*
X172134Y694231D01*
X171804Y694191D01*
X171752Y694179D01*
X171699Y694172D01*
X171374Y694094D01*
X171049Y694020D01*
X170998Y694003D01*
X170946Y693990D01*
X170631Y693879D01*
X170315Y693772D01*
X170276Y693753D01*
X170216Y693732D01*
X169517Y693400D01*
X169405Y693332D01*
X169330Y693296D01*
X167802Y692413D01*
X162674Y691039D01*
X157366Y691039D01*
X152238Y692413D01*
X147641Y695067D01*
X143887Y698821D01*
X141233Y703418D01*
X139859Y708546D01*
X139859Y713854D01*
X141233Y718982D01*
X143887Y723579D01*
X147641Y727333D01*
X152238Y729987D01*
X157366Y731361D01*
X162674Y731361D01*
X167802Y729987D01*
X172399Y727333D01*
X176153Y723579D01*
X178807Y718982D01*
X180181Y713854D01*
X180181Y708199D01*
X180171Y708094D01*
X180135Y707759D01*
X180135Y707709D01*
X180130Y707658D01*
X180133Y707322D01*
X180132Y706984D01*
X180137Y706934D01*
X180138Y706884D01*
X180176Y706550D01*
X180209Y706214D01*
X180219Y706165D01*
X180225Y706115D01*
X180298Y705784D01*
X180365Y705456D01*
X180380Y705408D01*
X180391Y705359D01*
X180497Y705038D01*
X180599Y704717D01*
X180619Y704671D01*
X180635Y704624D01*
X180773Y704316D01*
X180907Y704007D01*
X180932Y703963D01*
X180952Y703917D01*
X181122Y703626D01*
X181287Y703332D01*
X181316Y703291D01*
X181341Y703248D01*
X181539Y702976D01*
X181735Y702700D01*
X181768Y702663D01*
X181797Y702622D01*
X182023Y702372D01*
X182245Y702118D01*
X182282Y702084D01*
X182315Y702047D01*
X182566Y701820D01*
X182813Y701591D01*
X182853Y701561D01*
X182890Y701528D01*
X183164Y701327D01*
X183431Y701126D01*
X183474Y701100D01*
X183515Y701071D01*
X183807Y700901D01*
X184095Y700727D01*
X184141Y700706D01*
X184184Y700681D01*
X184491Y700542D01*
X184796Y700399D01*
X184844Y700382D01*
X184889Y700361D01*
X185209Y700255D01*
X185528Y700144D01*
X185576Y700133D01*
X185624Y700117D01*
X185953Y700044D01*
X186281Y699967D01*
X186331Y699960D01*
X186380Y699949D01*
X186714Y699911D01*
X187049Y699868D01*
X187099Y699866D01*
X187149Y699861D01*
X187486Y699857D01*
X187823Y699848D01*
X187873Y699852D01*
X187923Y699852D01*
X188260Y699883D01*
X188595Y699909D01*
X188644Y699918D01*
X188694Y699923D01*
X189026Y699988D01*
X189357Y700049D01*
X189405Y700063D01*
X189454Y700073D01*
X189577Y700113D01*
X190100Y700266D01*
X190355Y700371D01*
X190493Y700416D01*
X192796Y701371D01*
X198864Y701371D01*
X200340Y700759D01*
X200557Y700682D01*
X200771Y700596D01*
X200922Y700553D01*
X201070Y700500D01*
X201294Y700446D01*
X201515Y700382D01*
X201670Y700355D01*
X201822Y700318D01*
X202051Y700287D01*
X202278Y700246D01*
X202434Y700235D01*
X202590Y700214D01*
X202821Y700207D01*
X203050Y700190D01*
X203206Y700195D01*
X203364Y700190D01*
X203594Y700206D01*
X203824Y700213D01*
X203979Y700234D01*
X204136Y700246D01*
X204363Y700286D01*
X204591Y700317D01*
X204744Y700353D01*
X204898Y700381D01*
X205120Y700444D01*
X205344Y700498D01*
X205492Y700551D01*
X205643Y700594D01*
X205856Y700680D01*
X206074Y700757D01*
X206216Y700824D01*
X206361Y700882D01*
X206565Y700990D01*
X206773Y701089D01*
X206907Y701170D01*
X207046Y701244D01*
X207238Y701372D01*
X207435Y701491D01*
X207559Y701586D01*
X207690Y701674D01*
X207868Y701821D01*
X208051Y701960D01*
X208166Y702067D01*
X208286Y702168D01*
X208448Y702332D01*
X208616Y702490D01*
X208719Y702608D01*
X208828Y702720D01*
X208972Y702901D01*
X209123Y703075D01*
X209213Y703203D01*
X209311Y703326D01*
X209435Y703520D01*
X209567Y703709D01*
X209643Y703846D01*
X209728Y703978D01*
X209831Y704184D01*
X209943Y704386D01*
X210005Y704530D01*
X210076Y704670D01*
X210157Y704886D01*
X210248Y705098D01*
X210295Y705248D01*
X210350Y705394D01*
X210409Y705617D01*
X210477Y705837D01*
X210508Y705991D01*
X210548Y706143D01*
X210584Y706370D01*
X210629Y706596D01*
X210638Y706713D01*
X210669Y706908D01*
X210709Y707681D01*
X210709Y707685D01*
X210709Y707687D01*
X210709Y736838D01*
X213011Y742395D01*
X232735Y762119D01*
X238292Y764421D01*
X307808Y764421D01*
X313365Y762119D01*
X318673Y756811D01*
X318674Y756810D01*
X325010Y750474D01*
X325011Y750473D01*
X330319Y745165D01*
X332621Y739608D01*
X332621Y727709D01*
X332629Y727556D01*
X332627Y727402D01*
X332649Y727169D01*
X332661Y726936D01*
X332684Y726784D01*
X332699Y726631D01*
X332744Y726402D01*
X332780Y726171D01*
X332819Y726023D01*
X332849Y725872D01*
X332918Y725648D01*
X332978Y725423D01*
X333032Y725279D01*
X333078Y725132D01*
X333169Y724917D01*
X333252Y724698D01*
X333321Y724561D01*
X333381Y724419D01*
X333494Y724215D01*
X333599Y724006D01*
X333682Y723877D01*
X333756Y723742D01*
X333890Y723550D01*
X334016Y723353D01*
X334111Y723233D01*
X334199Y723107D01*
X334352Y722930D01*
X334497Y722747D01*
X334605Y722637D01*
X334705Y722521D01*
X334875Y722361D01*
X335039Y722194D01*
X335157Y722096D01*
X335269Y721990D01*
X335455Y721849D01*
X335635Y721699D01*
X335763Y721614D01*
X335885Y721521D01*
X336084Y721399D01*
X336278Y721269D01*
X336414Y721197D01*
X336545Y721117D01*
X336756Y721016D01*
X336963Y720907D01*
X337105Y720850D01*
X337244Y720784D01*
X337464Y720705D01*
X337681Y720618D01*
X337829Y720575D01*
X337974Y720524D01*
X338201Y720469D01*
X338425Y720404D01*
X338576Y720377D01*
X338726Y720341D01*
X338958Y720309D01*
X339188Y720268D01*
X339341Y720257D01*
X339493Y720236D01*
X339727Y720229D01*
X339960Y720212D01*
X340113Y720217D01*
X340267Y720212D01*
X340500Y720228D01*
X340734Y720235D01*
X340886Y720256D01*
X341039Y720267D01*
X341269Y720307D01*
X341501Y720338D01*
X341651Y720375D01*
X341802Y720401D01*
X342027Y720465D01*
X342254Y720520D01*
X342399Y720572D01*
X342547Y720614D01*
X342763Y720700D01*
X342984Y720779D01*
X343123Y720845D01*
X343265Y720902D01*
X343472Y721010D01*
X343683Y721111D01*
X343814Y721191D01*
X343951Y721262D01*
X344145Y721392D01*
X344345Y721513D01*
X344467Y721606D01*
X344595Y721692D01*
X344711Y721792D01*
X344961Y721982D01*
X345309Y722308D01*
X345423Y722407D01*
X347035Y724019D01*
X352592Y726321D01*
X358608Y726321D01*
X364165Y724019D01*
X367371Y720813D01*
X367446Y720745D01*
X367515Y720673D01*
X367733Y720486D01*
X367946Y720294D01*
X368028Y720235D01*
X368104Y720170D01*
X368340Y720007D01*
X368572Y719838D01*
X368659Y719787D01*
X368741Y719730D01*
X368993Y719593D01*
X369241Y719448D01*
X369333Y719407D01*
X369421Y719359D01*
X369685Y719248D01*
X369947Y719130D01*
X370042Y719098D01*
X370135Y719059D01*
X370409Y718976D01*
X370682Y718886D01*
X370780Y718864D01*
X370876Y718835D01*
X371157Y718781D01*
X371438Y718719D01*
X371538Y718707D01*
X371636Y718688D01*
X371922Y718663D01*
X372207Y718631D01*
X372308Y718630D01*
X372408Y718621D01*
X372694Y718625D01*
X372981Y718622D01*
X373081Y718632D01*
X373182Y718633D01*
X373467Y718667D01*
X373501Y718671D01*
X373501Y711200D01*
X373501Y703738D01*
X373400Y703744D01*
X373301Y703758D01*
X373014Y703767D01*
X372728Y703784D01*
X372627Y703779D01*
X372527Y703782D01*
X372241Y703762D01*
X371954Y703749D01*
X371855Y703735D01*
X371755Y703727D01*
X371472Y703678D01*
X371188Y703635D01*
X371091Y703610D01*
X370992Y703593D01*
X370716Y703514D01*
X370438Y703443D01*
X370344Y703408D01*
X370248Y703380D01*
X369981Y703274D01*
X369712Y703174D01*
X369622Y703130D01*
X369529Y703092D01*
X369275Y702959D01*
X369018Y702832D01*
X368932Y702779D01*
X368844Y702732D01*
X368605Y702573D01*
X368362Y702420D01*
X368283Y702358D01*
X368199Y702302D01*
X368079Y702198D01*
X367752Y701943D01*
X367492Y701692D01*
X367371Y701587D01*
X356774Y690990D01*
X356773Y690989D01*
X351465Y685681D01*
X345908Y683379D01*
X327192Y683379D01*
X321635Y685681D01*
X312397Y694919D01*
X312168Y695125D01*
X311945Y695336D01*
X311881Y695384D01*
X311822Y695438D01*
X311574Y695619D01*
X311329Y695806D01*
X311261Y695847D01*
X311196Y695894D01*
X310930Y696049D01*
X310668Y696209D01*
X310596Y696244D01*
X310527Y696284D01*
X310247Y696410D01*
X309969Y696543D01*
X309894Y696570D01*
X309821Y696602D01*
X309529Y696699D01*
X309240Y696802D01*
X309162Y696821D01*
X309086Y696846D01*
X308787Y696913D01*
X308488Y696985D01*
X308408Y696996D01*
X308330Y697013D01*
X308025Y697048D01*
X307720Y697090D01*
X307640Y697092D01*
X307561Y697101D01*
X307254Y697105D01*
X306946Y697115D01*
X306867Y697109D01*
X306787Y697110D01*
X306481Y697081D01*
X306174Y697059D01*
X306095Y697045D01*
X306016Y697038D01*
X305715Y696978D01*
X305412Y696925D01*
X305335Y696903D01*
X305256Y696887D01*
X304963Y696797D01*
X304667Y696712D01*
X304593Y696683D01*
X304516Y696659D01*
X304234Y696539D01*
X303948Y696424D01*
X303877Y696387D01*
X303804Y696356D01*
X303535Y696207D01*
X303263Y696064D01*
X303197Y696019D01*
X303126Y695981D01*
X302874Y695805D01*
X302619Y695634D01*
X302571Y695593D01*
X302491Y695538D01*
X301963Y695081D01*
X297342Y692413D01*
X292214Y691039D01*
X286906Y691039D01*
X281611Y692458D01*
X281329Y692567D01*
X281019Y692692D01*
X280968Y692707D01*
X280918Y692726D01*
X280595Y692814D01*
X280275Y692906D01*
X280222Y692915D01*
X280171Y692929D01*
X279841Y692983D01*
X279512Y693041D01*
X279459Y693045D01*
X279407Y693054D01*
X279072Y693074D01*
X278740Y693098D01*
X278687Y693096D01*
X278634Y693099D01*
X278299Y693085D01*
X277966Y693074D01*
X277914Y693067D01*
X277860Y693065D01*
X277530Y693016D01*
X277199Y692971D01*
X277147Y692959D01*
X277094Y692951D01*
X276772Y692868D01*
X276446Y692790D01*
X276396Y692772D01*
X276344Y692759D01*
X276032Y692643D01*
X275716Y692531D01*
X275668Y692508D01*
X275618Y692490D01*
X275319Y692343D01*
X275017Y692199D01*
X274971Y692171D01*
X274924Y692148D01*
X274641Y691970D01*
X274355Y691796D01*
X274313Y691764D01*
X274268Y691736D01*
X274005Y691530D01*
X273739Y691328D01*
X273700Y691291D01*
X273658Y691259D01*
X273418Y691026D01*
X273174Y690798D01*
X273139Y690758D01*
X273101Y690721D01*
X272886Y690466D01*
X272667Y690213D01*
X272636Y690169D01*
X272602Y690129D01*
X272415Y689853D01*
X272223Y689579D01*
X272197Y689532D01*
X272167Y689488D01*
X272010Y689195D01*
X271847Y688902D01*
X271826Y688853D01*
X271801Y688806D01*
X271674Y688498D01*
X271542Y688190D01*
X271526Y688139D01*
X271506Y688090D01*
X271412Y687769D01*
X271313Y687451D01*
X271302Y687399D01*
X271287Y687347D01*
X271226Y687018D01*
X271161Y686691D01*
X271157Y686649D01*
X271146Y686586D01*
X271084Y685814D01*
X271087Y685684D01*
X271081Y685600D01*
X271081Y682671D01*
X271080Y682669D01*
X271060Y682520D01*
X271031Y682372D01*
X271019Y682218D01*
X270976Y681902D01*
X270962Y681432D01*
X270951Y681281D01*
X270951Y666623D01*
X270959Y666473D01*
X270957Y666323D01*
X270978Y666087D01*
X270991Y665850D01*
X271014Y665702D01*
X271028Y665552D01*
X271074Y665319D01*
X271110Y665085D01*
X271149Y664940D01*
X271178Y664792D01*
X271226Y664645D01*
X271308Y664337D01*
X271474Y663898D01*
X271522Y663754D01*
X271661Y663418D01*
X271661Y659579D01*
X271667Y659452D01*
X271665Y659325D01*
X271687Y659066D01*
X271701Y658806D01*
X271720Y658680D01*
X271731Y658554D01*
X271780Y658298D01*
X271820Y658041D01*
X271853Y657918D01*
X271876Y657793D01*
X271951Y657544D01*
X272018Y657292D01*
X272063Y657173D01*
X272099Y657052D01*
X272200Y656811D01*
X272292Y656568D01*
X272349Y656454D01*
X272398Y656337D01*
X272522Y656108D01*
X272639Y655876D01*
X272707Y655769D01*
X272768Y655657D01*
X272915Y655443D01*
X273056Y655223D01*
X273135Y655124D01*
X273206Y655019D01*
X273375Y654821D01*
X273537Y654617D01*
X273626Y654526D01*
X273708Y654429D01*
X273896Y654250D01*
X274079Y654064D01*
X274177Y653982D01*
X274268Y653895D01*
X274474Y653735D01*
X274675Y653569D01*
X274780Y653498D01*
X274881Y653421D01*
X275102Y653283D01*
X275318Y653139D01*
X275431Y653079D01*
X275538Y653012D01*
X275773Y652898D01*
X276003Y652777D01*
X276121Y652729D01*
X276235Y652674D01*
X276480Y652585D01*
X276721Y652487D01*
X276843Y652452D01*
X276963Y652409D01*
X277215Y652346D01*
X277465Y652274D01*
X277590Y652252D01*
X277714Y652221D01*
X277972Y652184D01*
X278228Y652138D01*
X278354Y652129D01*
X278480Y652111D01*
X278741Y652100D01*
X279000Y652082D01*
X279127Y652085D01*
X279254Y652080D01*
X279513Y652097D01*
X279774Y652105D01*
X279900Y652122D01*
X280026Y652130D01*
X280183Y652160D01*
X280541Y652208D01*
X280944Y652305D01*
X281101Y652335D01*
X286906Y653891D01*
X292214Y653891D01*
X297342Y652517D01*
X301939Y649863D01*
X305693Y646109D01*
X308347Y641512D01*
X309721Y636384D01*
X309721Y631076D01*
X308347Y625948D01*
X305693Y621351D01*
X301939Y617597D01*
X297342Y614943D01*
X292214Y613569D01*
X286906Y613569D01*
X281778Y614943D01*
X278044Y617099D01*
X277954Y617145D01*
X277869Y617197D01*
X277610Y617321D01*
X277354Y617451D01*
X277261Y617487D01*
X277170Y617531D01*
X276900Y617627D01*
X276632Y617730D01*
X276535Y617757D01*
X276441Y617790D01*
X276161Y617858D01*
X275885Y617933D01*
X275786Y617950D01*
X275688Y617973D01*
X275404Y618012D01*
X275121Y618058D01*
X275020Y618064D01*
X274921Y618078D01*
X274635Y618087D01*
X274348Y618104D01*
X274247Y618099D01*
X274147Y618103D01*
X273861Y618082D01*
X273574Y618069D01*
X273475Y618055D01*
X273375Y618047D01*
X273093Y617998D01*
X272808Y617955D01*
X272711Y617930D01*
X272612Y617913D01*
X272336Y617834D01*
X272058Y617763D01*
X271964Y617728D01*
X271868Y617701D01*
X271601Y617594D01*
X271332Y617494D01*
X271242Y617450D01*
X271149Y617412D01*
X270895Y617279D01*
X270637Y617152D01*
X270553Y617099D01*
X270464Y617052D01*
X270225Y616893D01*
X269982Y616740D01*
X269903Y616678D01*
X269819Y616623D01*
X269698Y616518D01*
X269372Y616263D01*
X269112Y616012D01*
X268991Y615907D01*
X263341Y610257D01*
X263340Y610256D01*
X242474Y589390D01*
X242473Y589389D01*
X237165Y584081D01*
X231608Y581779D01*
X98269Y581779D01*
X98196Y581775D01*
X98122Y581778D01*
X97809Y581755D01*
X97496Y581739D01*
X97424Y581728D01*
X97350Y581723D01*
X97041Y581668D01*
X96731Y581620D01*
X96660Y581601D01*
X96588Y581588D01*
X96285Y581502D01*
X95983Y581422D01*
X95914Y581396D01*
X95843Y581376D01*
X95551Y581259D01*
X95258Y581148D01*
X95193Y581115D01*
X95124Y581088D01*
X94846Y580942D01*
X94566Y580801D01*
X94504Y580761D01*
X94439Y580727D01*
X94178Y580553D01*
X93914Y580384D01*
X93856Y580339D01*
X93795Y580298D01*
X93681Y580200D01*
X93307Y579903D01*
X93083Y579683D01*
X92967Y579583D01*
X80817Y567433D01*
X80768Y567379D01*
X80714Y567328D01*
X80509Y567091D01*
X80299Y566858D01*
X80255Y566799D01*
X80207Y566743D01*
X80027Y566486D01*
X79842Y566233D01*
X79805Y566169D01*
X79763Y566109D01*
X79611Y565835D01*
X79453Y565564D01*
X79422Y565497D01*
X79387Y565432D01*
X79263Y565144D01*
X79134Y564858D01*
X79111Y564788D01*
X79082Y564720D01*
X78989Y564421D01*
X78890Y564123D01*
X78874Y564051D01*
X78853Y563981D01*
X78791Y563673D01*
X78723Y563367D01*
X78715Y563294D01*
X78701Y563222D01*
X78690Y563071D01*
X78635Y562598D01*
X78632Y562284D01*
X78621Y562131D01*
X78621Y459188D01*
X78637Y458881D01*
X78646Y458574D01*
X78657Y458495D01*
X78661Y458415D01*
X78708Y458111D01*
X78749Y457807D01*
X78768Y457729D01*
X78780Y457650D01*
X78858Y457353D01*
X78931Y457054D01*
X78958Y456978D01*
X78978Y456901D01*
X79086Y456614D01*
X79189Y456324D01*
X79224Y456251D01*
X79252Y456177D01*
X79389Y455902D01*
X79521Y455625D01*
X79563Y455556D01*
X79599Y455485D01*
X79764Y455226D01*
X79924Y454963D01*
X79972Y454899D01*
X80016Y454832D01*
X80206Y454592D01*
X80393Y454347D01*
X80447Y454288D01*
X80497Y454226D01*
X80712Y454006D01*
X80922Y453782D01*
X80983Y453730D01*
X81039Y453672D01*
X81276Y453476D01*
X81507Y453275D01*
X81573Y453229D01*
X81635Y453178D01*
X81890Y453007D01*
X82142Y452831D01*
X82212Y452792D01*
X82278Y452747D01*
X82550Y452604D01*
X82818Y452454D01*
X82892Y452423D01*
X82963Y452386D01*
X83248Y452271D01*
X83530Y452150D01*
X83607Y452126D01*
X83681Y452096D01*
X83976Y452012D01*
X84270Y451920D01*
X84348Y451905D01*
X84425Y451883D01*
X84727Y451829D01*
X85029Y451768D01*
X85093Y451764D01*
X85188Y451747D01*
X85960Y451690D01*
X86056Y451693D01*
X86120Y451689D01*
X232723Y451689D01*
X232876Y451697D01*
X233030Y451695D01*
X233263Y451716D01*
X233496Y451729D01*
X233648Y451752D01*
X233801Y451766D01*
X234030Y451812D01*
X234261Y451848D01*
X234409Y451887D01*
X234560Y451917D01*
X234784Y451986D01*
X235010Y452046D01*
X235153Y452100D01*
X235300Y452145D01*
X235515Y452237D01*
X235734Y452320D01*
X235871Y452388D01*
X236013Y452449D01*
X236217Y452562D01*
X236426Y452667D01*
X236555Y452749D01*
X236690Y452824D01*
X236882Y452958D01*
X237079Y453083D01*
X237199Y453179D01*
X237325Y453267D01*
X237502Y453420D01*
X237685Y453565D01*
X237795Y453673D01*
X237911Y453773D01*
X238071Y453943D01*
X238238Y454107D01*
X238336Y454225D01*
X238442Y454337D01*
X238583Y454523D01*
X238733Y454703D01*
X238818Y454830D01*
X238911Y454952D01*
X239033Y455152D01*
X239163Y455346D01*
X239235Y455482D01*
X239315Y455613D01*
X239416Y455824D01*
X239525Y456031D01*
X239583Y456173D01*
X239649Y456312D01*
X239727Y456532D01*
X239814Y456749D01*
X239857Y456897D01*
X239908Y457041D01*
X239964Y457269D01*
X240028Y457493D01*
X240055Y457644D01*
X240091Y457794D01*
X240123Y458026D01*
X240164Y458255D01*
X240175Y458409D01*
X240196Y458561D01*
X240203Y458795D01*
X240220Y459028D01*
X240216Y459181D01*
X240221Y459335D01*
X240204Y459568D01*
X240197Y459802D01*
X240176Y459954D01*
X240165Y460107D01*
X240125Y460337D01*
X240094Y460569D01*
X240058Y460719D01*
X240031Y460870D01*
X239967Y461094D01*
X239912Y461322D01*
X239861Y461467D01*
X239819Y461614D01*
X239732Y461831D01*
X239654Y462052D01*
X239588Y462190D01*
X239530Y462333D01*
X239422Y462540D01*
X239321Y462751D01*
X239241Y462882D01*
X239170Y463018D01*
X239040Y463213D01*
X238919Y463412D01*
X238826Y463535D01*
X238741Y463663D01*
X238640Y463779D01*
X238450Y464029D01*
X238124Y464377D01*
X238025Y464491D01*
X192921Y509595D01*
X190619Y515152D01*
X190619Y519504D01*
X190615Y519577D01*
X190618Y519651D01*
X190595Y519964D01*
X190579Y520277D01*
X190568Y520349D01*
X190563Y520423D01*
X190508Y520732D01*
X190460Y521042D01*
X190441Y521113D01*
X190428Y521186D01*
X190342Y521488D01*
X190262Y521790D01*
X190236Y521859D01*
X190216Y521930D01*
X190099Y522222D01*
X189988Y522515D01*
X189955Y522580D01*
X189928Y522649D01*
X189782Y522927D01*
X189641Y523207D01*
X189601Y523269D01*
X189567Y523334D01*
X189393Y523595D01*
X189224Y523860D01*
X189214Y523872D01*
X189214Y537705D01*
X198895Y547386D01*
X212585Y547386D01*
X222266Y537705D01*
X222266Y526125D01*
X222270Y526051D01*
X222267Y525977D01*
X222290Y525664D01*
X222306Y525351D01*
X222317Y525279D01*
X222322Y525205D01*
X222377Y524896D01*
X222425Y524586D01*
X222444Y524515D01*
X222457Y524443D01*
X222543Y524140D01*
X222623Y523838D01*
X222649Y523769D01*
X222669Y523698D01*
X222786Y523406D01*
X222897Y523113D01*
X222930Y523048D01*
X222957Y522979D01*
X223103Y522702D01*
X223244Y522421D01*
X223284Y522359D01*
X223318Y522294D01*
X223492Y522033D01*
X223661Y521769D01*
X223706Y521711D01*
X223747Y521650D01*
X223845Y521536D01*
X224142Y521162D01*
X224362Y520938D01*
X224462Y520822D01*
X258067Y487217D01*
X258122Y487168D01*
X258172Y487114D01*
X258409Y486909D01*
X258642Y486699D01*
X258701Y486655D01*
X258757Y486607D01*
X259014Y486427D01*
X259267Y486242D01*
X259331Y486205D01*
X259391Y486163D01*
X259665Y486011D01*
X259936Y485853D01*
X260003Y485822D01*
X260068Y485787D01*
X260356Y485663D01*
X260642Y485534D01*
X260712Y485511D01*
X260780Y485482D01*
X261079Y485389D01*
X261377Y485290D01*
X261449Y485274D01*
X261519Y485253D01*
X261827Y485191D01*
X262133Y485123D01*
X262206Y485115D01*
X262278Y485101D01*
X262429Y485090D01*
X262902Y485035D01*
X263216Y485032D01*
X263370Y485021D01*
X307808Y485021D01*
X313365Y482719D01*
X318673Y477411D01*
X318674Y477410D01*
X321327Y474757D01*
X321441Y474654D01*
X321549Y474544D01*
X321729Y474394D01*
X321902Y474238D01*
X322026Y474148D01*
X322145Y474049D01*
X322339Y473919D01*
X322528Y473782D01*
X322661Y473704D01*
X322788Y473619D01*
X322995Y473510D01*
X323197Y473392D01*
X323337Y473329D01*
X323473Y473257D01*
X323690Y473170D01*
X323903Y473074D01*
X324049Y473025D01*
X324191Y472968D01*
X324416Y472903D01*
X324638Y472830D01*
X324788Y472797D01*
X324935Y472754D01*
X325165Y472713D01*
X325394Y472663D01*
X325546Y472645D01*
X325698Y472618D01*
X325931Y472601D01*
X326163Y472575D01*
X326317Y472573D01*
X326470Y472562D01*
X326703Y472569D01*
X326937Y472566D01*
X327090Y472581D01*
X327244Y472585D01*
X327476Y472617D01*
X327708Y472638D01*
X327859Y472668D01*
X328011Y472688D01*
X328239Y472743D01*
X328468Y472789D01*
X328614Y472834D01*
X328764Y472870D01*
X328984Y472948D01*
X329208Y473017D01*
X329349Y473077D01*
X329494Y473129D01*
X329705Y473229D01*
X329920Y473320D01*
X330054Y473395D01*
X330193Y473461D01*
X330393Y473582D01*
X330597Y473696D01*
X330724Y473784D01*
X330855Y473863D01*
X331041Y474005D01*
X331232Y474139D01*
X331349Y474239D01*
X331471Y474332D01*
X331642Y474492D01*
X331818Y474645D01*
X331924Y474757D01*
X332036Y474862D01*
X332189Y475038D01*
X332349Y475209D01*
X332442Y475331D01*
X332543Y475447D01*
X332677Y475638D01*
X332819Y475824D01*
X332899Y475955D01*
X332987Y476081D01*
X333101Y476285D01*
X333222Y476485D01*
X333289Y476623D01*
X333363Y476758D01*
X333455Y476973D01*
X333556Y477184D01*
X333607Y477328D01*
X333668Y477470D01*
X333737Y477693D01*
X333816Y477913D01*
X333852Y478063D01*
X333897Y478209D01*
X333943Y478438D01*
X333999Y478665D01*
X334019Y478818D01*
X334049Y478968D01*
X334061Y479122D01*
X334103Y479433D01*
X334118Y479910D01*
X334129Y480059D01*
X334129Y631658D01*
X336431Y637215D01*
X347035Y647819D01*
X352592Y650121D01*
X358608Y650121D01*
X365430Y647295D01*
X365500Y647270D01*
X365567Y647240D01*
X365864Y647141D01*
X366160Y647036D01*
X366231Y647018D01*
X366301Y646995D01*
X366608Y646927D01*
X366912Y646853D01*
X366985Y646844D01*
X367057Y646828D01*
X367369Y646792D01*
X367680Y646750D01*
X367753Y646747D01*
X367826Y646739D01*
X368139Y646735D01*
X368454Y646725D01*
X368527Y646731D01*
X368601Y646730D01*
X368913Y646759D01*
X369226Y646781D01*
X369298Y646794D01*
X369372Y646801D01*
X369679Y646862D01*
X369988Y646916D01*
X370059Y646937D01*
X370131Y646951D01*
X370274Y646998D01*
X370733Y647129D01*
X371024Y647246D01*
X371170Y647295D01*
X377992Y650121D01*
X383780Y650121D01*
X384087Y650137D01*
X384394Y650146D01*
X384473Y650157D01*
X384553Y650161D01*
X384856Y650208D01*
X385161Y650249D01*
X385239Y650268D01*
X385318Y650280D01*
X385615Y650358D01*
X385914Y650431D01*
X385990Y650458D01*
X386067Y650478D01*
X386353Y650586D01*
X386644Y650689D01*
X386716Y650724D01*
X386791Y650752D01*
X387065Y650889D01*
X387343Y651021D01*
X387412Y651063D01*
X387483Y651099D01*
X387742Y651264D01*
X388005Y651424D01*
X388068Y651472D01*
X388136Y651516D01*
X388376Y651706D01*
X388621Y651893D01*
X388680Y651947D01*
X388742Y651997D01*
X388962Y652212D01*
X389186Y652422D01*
X389238Y652483D01*
X389296Y652539D01*
X389492Y652776D01*
X389693Y653007D01*
X389739Y653073D01*
X389790Y653135D01*
X389961Y653390D01*
X390137Y653642D01*
X390176Y653712D01*
X390221Y653778D01*
X390364Y654050D01*
X390513Y654318D01*
X390545Y654392D01*
X390582Y654463D01*
X390697Y654748D01*
X390818Y655030D01*
X390842Y655107D01*
X390872Y655181D01*
X390956Y655476D01*
X391047Y655770D01*
X391063Y655848D01*
X391085Y655925D01*
X391139Y656227D01*
X391199Y656529D01*
X391204Y656593D01*
X391221Y656688D01*
X391278Y657460D01*
X391275Y657556D01*
X391279Y657620D01*
X391279Y676108D01*
X393581Y681665D01*
X435935Y724019D01*
X441492Y726321D01*
X447280Y726321D01*
X447587Y726337D01*
X447894Y726346D01*
X447973Y726357D01*
X448053Y726361D01*
X448356Y726408D01*
X448661Y726449D01*
X448739Y726468D01*
X448818Y726480D01*
X449115Y726558D01*
X449414Y726631D01*
X449490Y726658D01*
X449567Y726678D01*
X449853Y726786D01*
X450144Y726889D01*
X450216Y726924D01*
X450291Y726952D01*
X450565Y727089D01*
X450843Y727221D01*
X450912Y727263D01*
X450983Y727299D01*
X451242Y727464D01*
X451505Y727624D01*
X451568Y727672D01*
X451636Y727716D01*
X451876Y727906D01*
X452121Y728093D01*
X452180Y728147D01*
X452242Y728197D01*
X452462Y728412D01*
X452686Y728622D01*
X452738Y728683D01*
X452796Y728739D01*
X452992Y728976D01*
X453193Y729207D01*
X453239Y729273D01*
X453290Y729335D01*
X453461Y729590D01*
X453637Y729842D01*
X453676Y729912D01*
X453721Y729978D01*
X453864Y730249D01*
X454013Y730518D01*
X454045Y730592D01*
X454082Y730663D01*
X454197Y730948D01*
X454318Y731230D01*
X454342Y731307D01*
X454372Y731381D01*
X454456Y731676D01*
X454547Y731970D01*
X454563Y732048D01*
X454585Y732125D01*
X454639Y732427D01*
X454699Y732729D01*
X454704Y732793D01*
X454721Y732888D01*
X454778Y733660D01*
X454775Y733756D01*
X454779Y733820D01*
X454779Y738598D01*
X457081Y744155D01*
X462390Y749464D01*
X486763Y773837D01*
X486866Y773951D01*
X486976Y774059D01*
X487126Y774239D01*
X487282Y774412D01*
X487372Y774536D01*
X487471Y774655D01*
X487601Y774849D01*
X487738Y775038D01*
X487816Y775171D01*
X487901Y775298D01*
X488010Y775505D01*
X488128Y775707D01*
X488191Y775847D01*
X488263Y775983D01*
X488350Y776200D01*
X488446Y776413D01*
X488495Y776559D01*
X488552Y776701D01*
X488617Y776926D01*
X488690Y777148D01*
X488723Y777298D01*
X488766Y777445D01*
X488807Y777675D01*
X488857Y777904D01*
X488875Y778056D01*
X488902Y778208D01*
X488919Y778441D01*
X488945Y778673D01*
X488947Y778827D01*
X488958Y778980D01*
X488951Y779213D01*
X488954Y779447D01*
X488939Y779600D01*
X488935Y779754D01*
X488903Y779986D01*
X488882Y780218D01*
X488852Y780369D01*
X488832Y780521D01*
X488777Y780749D01*
X488731Y780978D01*
X488686Y781124D01*
X488650Y781274D01*
X488572Y781494D01*
X488503Y781718D01*
X488443Y781859D01*
X488391Y782004D01*
X488291Y782215D01*
X488200Y782430D01*
X488125Y782564D01*
X488059Y782703D01*
X487938Y782903D01*
X487824Y783107D01*
X487737Y783233D01*
X487657Y783365D01*
X487515Y783551D01*
X487381Y783742D01*
X487281Y783859D01*
X487188Y783981D01*
X487028Y784152D01*
X486875Y784328D01*
X486763Y784434D01*
X486658Y784546D01*
X486482Y784699D01*
X486311Y784859D01*
X486189Y784952D01*
X486073Y785053D01*
X485882Y785187D01*
X485696Y785329D01*
X485565Y785409D01*
X485439Y785497D01*
X485235Y785610D01*
X485035Y785732D01*
X484896Y785799D01*
X484762Y785873D01*
X484547Y785965D01*
X484336Y786066D01*
X484192Y786117D01*
X484050Y786178D01*
X483827Y786247D01*
X483607Y786326D01*
X483458Y786362D01*
X483311Y786407D01*
X483082Y786453D01*
X482855Y786509D01*
X482703Y786529D01*
X482552Y786559D01*
X482398Y786571D01*
X482087Y786613D01*
X481610Y786628D01*
X481461Y786639D01*
X62303Y786639D01*
X61969Y786622D01*
X61636Y786610D01*
X61583Y786602D01*
X61530Y786599D01*
X61199Y786548D01*
X60869Y786501D01*
X60818Y786488D01*
X60765Y786480D01*
X60443Y786395D01*
X60118Y786314D01*
X60068Y786296D01*
X60016Y786282D01*
X59705Y786164D01*
X59390Y786050D01*
X59342Y786027D01*
X59292Y786008D01*
X58994Y785859D01*
X58693Y785713D01*
X58648Y785685D01*
X58600Y785661D01*
X58319Y785482D01*
X58034Y785306D01*
X57992Y785273D01*
X57947Y785244D01*
X57686Y785037D01*
X57421Y784833D01*
X57383Y784796D01*
X57341Y784763D01*
X57101Y784528D01*
X56860Y784299D01*
X56826Y784259D01*
X56788Y784221D01*
X56574Y783964D01*
X56357Y783710D01*
X56327Y783666D01*
X56293Y783625D01*
X56108Y783348D01*
X55918Y783073D01*
X55892Y783026D01*
X55863Y782982D01*
X55707Y782687D01*
X55546Y782394D01*
X55526Y782344D01*
X55501Y782297D01*
X55376Y781987D01*
X55247Y781679D01*
X55232Y781628D01*
X55212Y781579D01*
X55119Y781258D01*
X55023Y780938D01*
X55013Y780886D01*
X54998Y780835D01*
X54939Y780507D01*
X54876Y780178D01*
X54871Y780125D01*
X54862Y780072D01*
X54838Y779740D01*
X54809Y779407D01*
X54809Y779353D01*
X54806Y779300D01*
X54816Y778967D01*
X54821Y778633D01*
X54827Y778580D01*
X54829Y778526D01*
X54874Y778194D01*
X54913Y777864D01*
X54925Y777812D01*
X54932Y777759D01*
X55011Y777433D01*
X55084Y777109D01*
X55101Y777058D01*
X55114Y777006D01*
X55226Y776690D01*
X55332Y776375D01*
X55351Y776336D01*
X55372Y776276D01*
X55704Y775577D01*
X55772Y775465D01*
X55809Y775390D01*
X56466Y774252D01*
X58181Y767853D01*
X58181Y761227D01*
X56466Y754828D01*
X53154Y749091D01*
X48469Y744406D01*
X42732Y741094D01*
X36333Y739379D01*
X29707Y739379D01*
X23308Y741094D01*
X21410Y742190D01*
X21112Y742342D01*
X20817Y742498D01*
X20768Y742518D01*
X20720Y742542D01*
X20408Y742663D01*
X20099Y742787D01*
X20048Y742802D01*
X19998Y742821D01*
X19675Y742909D01*
X19355Y743001D01*
X19302Y743010D01*
X19251Y743024D01*
X18921Y743078D01*
X18592Y743137D01*
X18539Y743141D01*
X18486Y743149D01*
X18153Y743169D01*
X17820Y743193D01*
X17767Y743192D01*
X17713Y743195D01*
X17380Y743180D01*
X17046Y743170D01*
X16993Y743163D01*
X16940Y743160D01*
X16611Y743111D01*
X16279Y743067D01*
X16227Y743054D01*
X16174Y743046D01*
X15852Y742964D01*
X15526Y742885D01*
X15476Y742867D01*
X15424Y742854D01*
X15111Y742738D01*
X14796Y742627D01*
X14748Y742604D01*
X14698Y742585D01*
X14398Y742437D01*
X14097Y742294D01*
X14051Y742267D01*
X14003Y742243D01*
X13720Y742065D01*
X13435Y741892D01*
X13393Y741859D01*
X13348Y741831D01*
X13085Y741625D01*
X12819Y741423D01*
X12780Y741387D01*
X12738Y741354D01*
X12498Y741122D01*
X12254Y740893D01*
X12219Y740853D01*
X12181Y740816D01*
X11966Y740561D01*
X11747Y740308D01*
X11716Y740265D01*
X11682Y740224D01*
X11495Y739948D01*
X11303Y739674D01*
X11277Y739627D01*
X11247Y739583D01*
X11089Y739289D01*
X10927Y738997D01*
X10906Y738948D01*
X10880Y738901D01*
X10754Y738593D01*
X10622Y738285D01*
X10606Y738234D01*
X10586Y738185D01*
X10492Y737865D01*
X10393Y737546D01*
X10382Y737494D01*
X10367Y737442D01*
X10306Y737114D01*
X10241Y736787D01*
X10237Y736744D01*
X10226Y736681D01*
X10164Y735909D01*
X10167Y735778D01*
X10161Y735696D01*
X10161Y60594D01*
X10178Y60261D01*
X10190Y59927D01*
X10198Y59874D01*
X10201Y59821D01*
X10252Y59491D01*
X10299Y59161D01*
X10312Y59109D01*
X10320Y59056D01*
X10405Y58733D01*
X10486Y58409D01*
X10504Y58359D01*
X10518Y58307D01*
X10636Y57995D01*
X10750Y57681D01*
X10773Y57633D01*
X10792Y57583D01*
X10942Y57284D01*
X11087Y56984D01*
X11115Y56939D01*
X11139Y56891D01*
X11319Y56610D01*
X11494Y56326D01*
X11527Y56283D01*
X11556Y56238D01*
X11763Y55977D01*
X11967Y55713D01*
X12004Y55674D01*
X12037Y55632D01*
X12271Y55393D01*
X12501Y55152D01*
X12541Y55117D01*
X12579Y55079D01*
X12836Y54865D01*
X13090Y54649D01*
X13134Y54618D01*
X13175Y54584D01*
X13452Y54399D01*
X13727Y54209D01*
X13774Y54183D01*
X13818Y54154D01*
X14113Y53998D01*
X14406Y53838D01*
X14456Y53817D01*
X14503Y53792D01*
X14813Y53667D01*
X15120Y53538D01*
X15172Y53523D01*
X15221Y53503D01*
X15541Y53411D01*
X15862Y53314D01*
X15914Y53304D01*
X15965Y53289D01*
X16293Y53231D01*
X16622Y53167D01*
X16675Y53163D01*
X16728Y53153D01*
X17060Y53129D01*
X17393Y53100D01*
X17447Y53101D01*
X17500Y53097D01*
X17834Y53107D01*
X18167Y53112D01*
X18220Y53119D01*
X18274Y53120D01*
X18606Y53165D01*
X18936Y53205D01*
X18988Y53216D01*
X19041Y53223D01*
X19366Y53302D01*
X19691Y53375D01*
X19742Y53393D01*
X19794Y53405D01*
X20109Y53517D01*
X20425Y53623D01*
X20464Y53642D01*
X20524Y53663D01*
X21223Y53996D01*
X21335Y54064D01*
X21410Y54100D01*
X23308Y55196D01*
X29707Y56911D01*
X36333Y56911D01*
X42732Y55196D01*
X48469Y51884D01*
X53154Y47199D01*
X56466Y41462D01*
X58181Y35063D01*
X58181Y28437D01*
X56466Y22038D01*
X56103Y21410D01*
X55952Y21113D01*
X55795Y20817D01*
X55775Y20767D01*
X55751Y20720D01*
X55631Y20409D01*
X55506Y20099D01*
X55491Y20048D01*
X55472Y19998D01*
X55384Y19675D01*
X55292Y19355D01*
X55283Y19302D01*
X55269Y19251D01*
X55215Y18921D01*
X55157Y18592D01*
X55153Y18539D01*
X55144Y18486D01*
X55124Y18153D01*
X55100Y17820D01*
X55102Y17767D01*
X55099Y17713D01*
X55113Y17380D01*
X55124Y17046D01*
X55131Y16993D01*
X55133Y16940D01*
X55182Y16611D01*
X55227Y16279D01*
X55239Y16227D01*
X55247Y16174D01*
X55330Y15851D01*
X55408Y15526D01*
X55426Y15476D01*
X55439Y15424D01*
X55555Y15111D01*
X55667Y14796D01*
X55690Y14748D01*
X55708Y14698D01*
X55855Y14399D01*
X55999Y14097D01*
X56027Y14051D01*
X56050Y14003D01*
X56228Y13720D01*
X56402Y13435D01*
X56434Y13393D01*
X56462Y13348D01*
X56668Y13085D01*
X56870Y12819D01*
X56907Y12780D01*
X56940Y12738D01*
X57171Y12498D01*
X57400Y12254D01*
X57440Y12219D01*
X57477Y12181D01*
X57732Y11966D01*
X57985Y11747D01*
X58029Y11716D01*
X58070Y11682D01*
X58346Y11495D01*
X58619Y11303D01*
X58666Y11277D01*
X58710Y11247D01*
X59004Y11089D01*
X59296Y10927D01*
X59345Y10906D01*
X59392Y10880D01*
X59701Y10754D01*
X60008Y10622D01*
X60059Y10606D01*
X60108Y10586D01*
X60428Y10492D01*
X60747Y10393D01*
X60800Y10382D01*
X60851Y10367D01*
X61179Y10306D01*
X61507Y10241D01*
X61550Y10237D01*
X61612Y10226D01*
X62384Y10164D01*
X62515Y10167D01*
X62598Y10161D01*
X120001Y10161D01*
X120154Y10169D01*
G37*
G36*
X668552Y158570D02*
X668552Y158570D01*
X668786Y158577D01*
X668938Y158598D01*
X669091Y158609D01*
X669321Y158649D01*
X669553Y158680D01*
X669703Y158717D01*
X669854Y158743D01*
X670078Y158807D01*
X670306Y158862D01*
X670451Y158913D01*
X670599Y158956D01*
X670816Y159043D01*
X671036Y159121D01*
X671175Y159186D01*
X671317Y159244D01*
X671524Y159353D01*
X671735Y159453D01*
X671866Y159533D01*
X672003Y159604D01*
X672197Y159734D01*
X672397Y159855D01*
X672519Y159948D01*
X672647Y160034D01*
X672763Y160134D01*
X673013Y160324D01*
X673361Y160650D01*
X673475Y160749D01*
X722123Y209397D01*
X722172Y209452D01*
X722226Y209502D01*
X722431Y209739D01*
X722641Y209972D01*
X722685Y210031D01*
X722733Y210087D01*
X722913Y210344D01*
X723098Y210597D01*
X723135Y210661D01*
X723177Y210721D01*
X723329Y210995D01*
X723487Y211266D01*
X723518Y211333D01*
X723553Y211398D01*
X723677Y211686D01*
X723806Y211972D01*
X723829Y212042D01*
X723858Y212110D01*
X723951Y212409D01*
X724050Y212707D01*
X724066Y212779D01*
X724087Y212849D01*
X724149Y213157D01*
X724217Y213463D01*
X724225Y213536D01*
X724239Y213608D01*
X724250Y213759D01*
X724305Y214232D01*
X724308Y214546D01*
X724319Y214700D01*
X724319Y278921D01*
X724311Y279074D01*
X724313Y279228D01*
X724291Y279461D01*
X724279Y279694D01*
X724256Y279846D01*
X724241Y279999D01*
X724196Y280228D01*
X724160Y280459D01*
X724121Y280608D01*
X724091Y280759D01*
X724022Y280982D01*
X723962Y281208D01*
X723908Y281351D01*
X723862Y281499D01*
X723771Y281714D01*
X723688Y281932D01*
X723619Y282069D01*
X723559Y282211D01*
X723446Y282416D01*
X723341Y282624D01*
X723258Y282754D01*
X723184Y282888D01*
X723050Y283080D01*
X722924Y283277D01*
X722829Y283397D01*
X722741Y283523D01*
X722588Y283700D01*
X722443Y283883D01*
X722335Y283993D01*
X722235Y284109D01*
X722065Y284269D01*
X721901Y284437D01*
X721783Y284535D01*
X721671Y284640D01*
X721485Y284782D01*
X721305Y284931D01*
X721177Y285017D01*
X721055Y285110D01*
X720856Y285232D01*
X720662Y285361D01*
X720526Y285433D01*
X720395Y285513D01*
X720184Y285614D01*
X719977Y285723D01*
X719834Y285781D01*
X719696Y285847D01*
X719476Y285925D01*
X719259Y286013D01*
X719111Y286055D01*
X718966Y286107D01*
X718739Y286162D01*
X718515Y286226D01*
X718364Y286253D01*
X718214Y286290D01*
X717982Y286321D01*
X717752Y286362D01*
X717599Y286373D01*
X717447Y286394D01*
X717213Y286401D01*
X716980Y286419D01*
X716827Y286414D01*
X716673Y286419D01*
X716440Y286402D01*
X716206Y286395D01*
X716054Y286375D01*
X715901Y286364D01*
X715671Y286323D01*
X715439Y286292D01*
X715289Y286256D01*
X715138Y286229D01*
X714914Y286165D01*
X714686Y286110D01*
X714541Y286059D01*
X714393Y286017D01*
X714176Y285930D01*
X713956Y285852D01*
X713817Y285786D01*
X713675Y285729D01*
X713468Y285620D01*
X713257Y285520D01*
X713126Y285440D01*
X712989Y285368D01*
X712795Y285239D01*
X712595Y285117D01*
X712473Y285024D01*
X712345Y284939D01*
X712229Y284838D01*
X711979Y284648D01*
X711631Y284322D01*
X711517Y284224D01*
X682323Y255029D01*
X676765Y252727D01*
X672632Y252727D01*
X672325Y252711D01*
X672018Y252702D01*
X671939Y252691D01*
X671859Y252687D01*
X671556Y252640D01*
X671251Y252599D01*
X671173Y252580D01*
X671094Y252568D01*
X670797Y252490D01*
X670498Y252417D01*
X670422Y252390D01*
X670345Y252370D01*
X670059Y252262D01*
X669768Y252159D01*
X669696Y252124D01*
X669621Y252096D01*
X669347Y251959D01*
X669069Y251827D01*
X669000Y251785D01*
X668929Y251749D01*
X668670Y251584D01*
X668407Y251424D01*
X668344Y251376D01*
X668276Y251332D01*
X668036Y251142D01*
X667791Y250955D01*
X667732Y250901D01*
X667670Y250851D01*
X667450Y250636D01*
X667226Y250426D01*
X667174Y250365D01*
X667116Y250309D01*
X666920Y250072D01*
X666719Y249841D01*
X666673Y249775D01*
X666622Y249713D01*
X666451Y249458D01*
X666275Y249206D01*
X666236Y249136D01*
X666191Y249070D01*
X666048Y248798D01*
X665899Y248530D01*
X665867Y248456D01*
X665830Y248385D01*
X665715Y248100D01*
X665594Y247818D01*
X665570Y247741D01*
X665540Y247667D01*
X665456Y247372D01*
X665365Y247078D01*
X665349Y247000D01*
X665327Y246923D01*
X665273Y246621D01*
X665213Y246319D01*
X665208Y246255D01*
X665191Y246160D01*
X665134Y245388D01*
X665137Y245292D01*
X665133Y245228D01*
X665133Y237888D01*
X662433Y231370D01*
X662408Y231301D01*
X662378Y231233D01*
X662279Y230936D01*
X662174Y230640D01*
X662157Y230569D01*
X662133Y230499D01*
X662065Y230192D01*
X661992Y229888D01*
X661982Y229815D01*
X661966Y229743D01*
X661930Y229431D01*
X661888Y229120D01*
X661886Y229047D01*
X661877Y228974D01*
X661874Y228660D01*
X661864Y228346D01*
X661869Y228273D01*
X661868Y228199D01*
X661897Y227887D01*
X661920Y227574D01*
X661932Y227502D01*
X661939Y227428D01*
X662000Y227120D01*
X662055Y226812D01*
X662075Y226741D01*
X662089Y226669D01*
X662137Y226526D01*
X662268Y226067D01*
X662385Y225776D01*
X662433Y225630D01*
X665133Y219112D01*
X665133Y212488D01*
X662433Y205970D01*
X662408Y205901D01*
X662378Y205833D01*
X662279Y205536D01*
X662174Y205240D01*
X662157Y205169D01*
X662133Y205099D01*
X662065Y204792D01*
X661992Y204488D01*
X661982Y204415D01*
X661966Y204343D01*
X661930Y204031D01*
X661888Y203720D01*
X661886Y203647D01*
X661877Y203574D01*
X661874Y203260D01*
X661864Y202946D01*
X661869Y202873D01*
X661868Y202799D01*
X661897Y202487D01*
X661920Y202174D01*
X661932Y202102D01*
X661939Y202028D01*
X662000Y201720D01*
X662055Y201412D01*
X662075Y201341D01*
X662089Y201269D01*
X662137Y201126D01*
X662268Y200667D01*
X662385Y200376D01*
X662433Y200230D01*
X665133Y193712D01*
X665133Y187088D01*
X662598Y180967D01*
X660798Y179167D01*
X660730Y179092D01*
X660657Y179023D01*
X660471Y178805D01*
X660279Y178592D01*
X660220Y178511D01*
X660155Y178434D01*
X659992Y178198D01*
X659823Y177967D01*
X659772Y177880D01*
X659715Y177797D01*
X659577Y177545D01*
X659433Y177297D01*
X659392Y177206D01*
X659344Y177117D01*
X659233Y176853D01*
X659115Y176592D01*
X659083Y176496D01*
X659044Y176403D01*
X658961Y176129D01*
X658871Y175857D01*
X658849Y175759D01*
X658820Y175662D01*
X658766Y175380D01*
X658704Y175101D01*
X658692Y175001D01*
X658673Y174902D01*
X658648Y174616D01*
X658616Y174331D01*
X658615Y174231D01*
X658606Y174131D01*
X658611Y173844D01*
X658608Y173557D01*
X658617Y173457D01*
X658618Y173356D01*
X658653Y173072D01*
X658679Y172786D01*
X658699Y172687D01*
X658711Y172588D01*
X658774Y172308D01*
X658830Y172027D01*
X658860Y171930D01*
X658882Y171832D01*
X658974Y171561D01*
X659058Y171287D01*
X659098Y171194D01*
X659130Y171099D01*
X659199Y170955D01*
X659361Y170574D01*
X659389Y170525D01*
X660050Y168928D01*
X660464Y167384D01*
X660679Y165751D01*
X660679Y165744D01*
X660701Y165511D01*
X660713Y165278D01*
X660736Y165126D01*
X660751Y164973D01*
X660796Y164744D01*
X660832Y164513D01*
X660871Y164365D01*
X660901Y164214D01*
X660970Y163990D01*
X661030Y163765D01*
X661084Y163621D01*
X661130Y163474D01*
X661221Y163259D01*
X661304Y163040D01*
X661373Y162903D01*
X661433Y162761D01*
X661546Y162557D01*
X661651Y162348D01*
X661734Y162219D01*
X661808Y162084D01*
X661942Y161892D01*
X662068Y161695D01*
X662163Y161575D01*
X662251Y161449D01*
X662404Y161272D01*
X662549Y161089D01*
X662657Y160979D01*
X662757Y160863D01*
X662927Y160703D01*
X663091Y160536D01*
X663209Y160438D01*
X663321Y160332D01*
X663507Y160191D01*
X663687Y160041D01*
X663815Y159956D01*
X663937Y159863D01*
X664136Y159741D01*
X664330Y159611D01*
X664466Y159539D01*
X664597Y159459D01*
X664808Y159358D01*
X665015Y159249D01*
X665158Y159192D01*
X665296Y159126D01*
X665516Y159047D01*
X665733Y158960D01*
X665881Y158917D01*
X666026Y158866D01*
X666253Y158811D01*
X666477Y158746D01*
X666628Y158719D01*
X666778Y158683D01*
X667010Y158651D01*
X667240Y158610D01*
X667393Y158599D01*
X667545Y158578D01*
X667779Y158571D01*
X668012Y158554D01*
X668165Y158559D01*
X668319Y158554D01*
X668552Y158570D01*
G37*
%LPC*%
G36*
X167519Y538359D02*
X167519Y538359D01*
X167519Y540424D01*
X169584Y538359D01*
X167519Y538359D01*
G37*
%LPD*%
%LPC*%
G36*
X150456Y538359D02*
X150456Y538359D01*
X152521Y540424D01*
X152521Y538359D01*
X150456Y538359D01*
G37*
%LPD*%
%LPC*%
G36*
X167519Y523361D02*
X167519Y523361D01*
X169584Y523361D01*
X167519Y521296D01*
X167519Y523361D01*
G37*
%LPD*%
%LPC*%
G36*
X150456Y523361D02*
X150456Y523361D01*
X152521Y523361D01*
X152521Y521296D01*
X150456Y523361D01*
G37*
%LPD*%
D10*
X88655Y101355D03*
X114655Y101355D03*
X140655Y101355D03*
X166655Y101355D03*
X192655Y101355D03*
X218655Y101355D03*
X244655Y101355D03*
X270655Y101355D03*
D11*
X648480Y139600D03*
X648480Y165000D03*
X648480Y190400D03*
X648480Y215800D03*
X648480Y241200D03*
X648480Y266600D03*
X648480Y292000D03*
X648480Y317400D03*
X648480Y342800D03*
X648480Y368200D03*
X648480Y393600D03*
X648480Y419000D03*
X648480Y444400D03*
X648480Y469800D03*
X648480Y495200D03*
X400780Y139600D03*
X400780Y165000D03*
X400780Y190400D03*
X400780Y215800D03*
X400780Y241200D03*
X400780Y266600D03*
X400780Y292000D03*
X400780Y317400D03*
X400780Y342800D03*
X400780Y368200D03*
X400780Y393600D03*
X400780Y419000D03*
X400780Y444400D03*
X400780Y469800D03*
X400780Y495200D03*
D10*
X143510Y284480D03*
X118110Y284480D03*
X168910Y284480D03*
X194310Y284480D03*
X219710Y284480D03*
X245110Y284480D03*
X270510Y284480D03*
X92710Y284480D03*
D12*
X469900Y635000D03*
X444500Y635000D03*
X444500Y711200D03*
X469900Y711200D03*
X355600Y711200D03*
X381000Y711200D03*
X558800Y673100D03*
X533400Y673100D03*
X381000Y635000D03*
X355600Y635000D03*
D13*
X255830Y686120D03*
X225830Y686120D03*
X195830Y686120D03*
X255830Y661120D03*
X225830Y661120D03*
X195830Y661120D03*
D14*
X160020Y530860D03*
X205740Y530860D03*
D15*
X366570Y139600D02*
X400780Y139600D01*
X366570Y139600D02*
X343470Y162700D01*
X343470Y362650D01*
X256540Y660410D02*
X255830Y661120D01*
X255830Y686120D01*
X255830Y661120D02*
X255830Y635000D01*
X63500Y449268D02*
X76200Y436568D01*
X88900Y596900D02*
X228600Y596900D01*
X269552Y436568D02*
X343470Y362650D01*
X269552Y436568D02*
X76200Y436568D01*
X63500Y571500D02*
X88900Y596900D01*
X63500Y571500D02*
X63500Y449268D01*
X228600Y596900D02*
X255830Y624130D01*
X255830Y635000D01*
X648580Y165100D02*
X648480Y165000D01*
X648580Y165100D02*
X667220Y165100D01*
X670160Y168040D01*
X444500Y190400D02*
X400780Y190400D01*
X444500Y190400D02*
X446370Y192270D01*
X446849Y192270D01*
X495300Y240721D01*
X495300Y571500D02*
X469900Y596900D01*
X469900Y635000D01*
X495300Y571500D02*
X495300Y240721D01*
X400780Y215800D02*
X399540Y214890D01*
X469900Y247310D02*
X469900Y558800D01*
X444500Y584200D01*
X444500Y635000D01*
X437480Y214890D02*
X399540Y214890D01*
X437480Y214890D02*
X469900Y247310D01*
X205740Y518160D02*
X205740Y530860D01*
X304800Y469900D02*
X326630Y448070D01*
X326630Y412270D01*
X368300Y370600D01*
X368300Y241300D01*
X368400Y241200D02*
X400780Y241200D01*
X368400Y241200D02*
X368300Y241300D01*
X254000Y469900D02*
X205740Y518160D01*
X254000Y469900D02*
X304800Y469900D01*
X166655Y204755D02*
X166655Y101355D01*
X219710Y257810D02*
X219710Y284480D01*
X219710Y257810D02*
X166655Y204755D01*
X166655Y101355D02*
X166655Y74645D01*
X177800Y63500D01*
X533400Y63500D01*
X609600Y139700D01*
X609600Y368300D01*
X635000Y393700D01*
X648380Y393700D01*
X648480Y393600D01*
X140655Y216855D02*
X140655Y101355D01*
X168910Y245110D02*
X168910Y284480D01*
X168910Y245110D02*
X140655Y216855D01*
X168910Y284480D02*
X168910Y346710D01*
X297180Y337820D02*
X297180Y115570D01*
X322580Y90170D01*
X521970Y90170D01*
X558800Y127000D01*
X558800Y419100D02*
X609600Y469900D01*
X648380Y469900D01*
X648480Y469800D01*
X177800Y355600D02*
X168910Y346710D01*
X177800Y355600D02*
X279400Y355600D01*
X297180Y337820D01*
X558800Y419100D02*
X558800Y127000D01*
X469900Y735590D02*
X506170Y771860D01*
X469900Y735590D02*
X469900Y711200D01*
X506170Y771860D02*
X644670Y771860D01*
X739440Y677090D01*
X739440Y205330D01*
X673640Y139530D01*
X656098Y139530D02*
X648478Y139530D01*
X656098Y139530D02*
X673640Y139530D01*
X537560Y19840D02*
X149810Y19840D01*
X537560Y19840D02*
X656061Y138341D01*
X656098Y139530D01*
X648480Y139600D02*
X648478Y139530D01*
X88655Y101355D02*
X88655Y241300D01*
X88655Y101355D02*
X88655Y80995D01*
X149810Y19840D01*
X88655Y241300D02*
X118110Y270755D01*
X118110Y284480D01*
X330200Y698500D02*
X342900Y698500D01*
X330200Y698500D02*
X317500Y711200D01*
X317500Y736600D02*
X304800Y749300D01*
X241300Y749300D01*
X225830Y733830D02*
X225830Y686120D01*
X342900Y698500D02*
X355600Y711200D01*
X317500Y711200D02*
X317500Y736600D01*
X241300Y749300D02*
X225830Y733830D01*
X225830Y686120D02*
X225830Y661120D01*
X648480Y266600D02*
X649728Y267848D01*
X673758Y267848D01*
X714040Y308130D01*
X714040Y581360D02*
X622300Y673100D01*
X558800Y673100D01*
X714040Y581360D02*
X714040Y308130D01*
X552450Y641350D02*
X533400Y660400D01*
X533400Y673100D01*
X691420Y502380D02*
X691420Y482600D01*
X691420Y317500D01*
X665920Y292000D02*
X648480Y292000D01*
X665920Y292000D02*
X691420Y317500D01*
X615950Y641350D02*
X552450Y641350D01*
X691420Y565880D02*
X691420Y502380D01*
X691420Y565880D02*
X615950Y641350D01*
X381000Y635000D02*
X381000Y622300D01*
X371870Y613170D01*
X387450Y419000D02*
X400780Y419000D01*
X371870Y434580D02*
X371870Y613170D01*
X371870Y434580D02*
X387450Y419000D01*
X378560Y393600D02*
X400780Y393600D01*
X349250Y628650D02*
X355600Y635000D01*
X349250Y628650D02*
X349250Y422910D01*
X378560Y393600D01*
X444500Y330200D02*
X444500Y546100D01*
X406400Y584200D01*
X406400Y673100D01*
X444500Y711200D01*
X400880Y292100D02*
X400780Y292000D01*
X400880Y292100D02*
X419100Y292100D01*
X444500Y317500D01*
X444500Y330200D01*
M02*
