G04 EAGLE Gerber RS-274X export*
G75*
%MOMM*%
%FSLAX34Y34*%
%LPD*%
%IN*%
%IPPOS*%
%AMOC8*
5,1,8,0,0,1.08239X$1,22.5*%
G01*
%ADD10C,0.254000*%


D10*
X0Y0D02*
X761800Y0D01*
X761800Y796800D01*
X0Y796800D01*
X0Y0D01*
X48020Y31214D02*
X47944Y30146D01*
X47791Y29085D01*
X47563Y28038D01*
X47261Y27010D01*
X46887Y26006D01*
X46442Y25031D01*
X45928Y24091D01*
X45349Y23190D01*
X44707Y22332D01*
X44005Y21522D01*
X43248Y20765D01*
X42438Y20063D01*
X41580Y19421D01*
X40679Y18842D01*
X39739Y18328D01*
X38764Y17883D01*
X37760Y17509D01*
X36732Y17207D01*
X35685Y16979D01*
X34624Y16826D01*
X33556Y16750D01*
X32484Y16750D01*
X31416Y16826D01*
X30355Y16979D01*
X29308Y17207D01*
X28280Y17509D01*
X27276Y17883D01*
X26301Y18328D01*
X25361Y18842D01*
X24460Y19421D01*
X23602Y20063D01*
X22792Y20765D01*
X22035Y21522D01*
X21333Y22332D01*
X20691Y23190D01*
X20112Y24091D01*
X19598Y25031D01*
X19153Y26006D01*
X18779Y27010D01*
X18477Y28038D01*
X18249Y29085D01*
X18096Y30146D01*
X18020Y31214D01*
X18020Y32286D01*
X18096Y33354D01*
X18249Y34415D01*
X18477Y35462D01*
X18779Y36490D01*
X19153Y37494D01*
X19598Y38469D01*
X20112Y39409D01*
X20691Y40310D01*
X21333Y41168D01*
X22035Y41978D01*
X22792Y42735D01*
X23602Y43437D01*
X24460Y44079D01*
X25361Y44658D01*
X26301Y45172D01*
X27276Y45617D01*
X28280Y45991D01*
X29308Y46293D01*
X30355Y46521D01*
X31416Y46674D01*
X32484Y46750D01*
X33556Y46750D01*
X34624Y46674D01*
X35685Y46521D01*
X36732Y46293D01*
X37760Y45991D01*
X38764Y45617D01*
X39739Y45172D01*
X40679Y44658D01*
X41580Y44079D01*
X42438Y43437D01*
X43248Y42735D01*
X44005Y41978D01*
X44707Y41168D01*
X45349Y40310D01*
X45928Y39409D01*
X46442Y38469D01*
X46887Y37494D01*
X47261Y36490D01*
X47563Y35462D01*
X47791Y34415D01*
X47944Y33354D01*
X48020Y32286D01*
X48020Y31214D01*
X747790Y27404D02*
X747714Y26336D01*
X747561Y25275D01*
X747333Y24228D01*
X747031Y23200D01*
X746657Y22196D01*
X746212Y21221D01*
X745698Y20281D01*
X745119Y19380D01*
X744477Y18522D01*
X743775Y17712D01*
X743018Y16955D01*
X742208Y16253D01*
X741350Y15611D01*
X740449Y15032D01*
X739509Y14518D01*
X738534Y14073D01*
X737530Y13699D01*
X736502Y13397D01*
X735455Y13169D01*
X734394Y13016D01*
X733326Y12940D01*
X732254Y12940D01*
X731186Y13016D01*
X730125Y13169D01*
X729078Y13397D01*
X728050Y13699D01*
X727046Y14073D01*
X726071Y14518D01*
X725131Y15032D01*
X724230Y15611D01*
X723372Y16253D01*
X722562Y16955D01*
X721805Y17712D01*
X721103Y18522D01*
X720461Y19380D01*
X719882Y20281D01*
X719368Y21221D01*
X718923Y22196D01*
X718549Y23200D01*
X718247Y24228D01*
X718019Y25275D01*
X717866Y26336D01*
X717790Y27404D01*
X717790Y28476D01*
X717866Y29544D01*
X718019Y30605D01*
X718247Y31652D01*
X718549Y32680D01*
X718923Y33684D01*
X719368Y34659D01*
X719882Y35599D01*
X720461Y36500D01*
X721103Y37358D01*
X721805Y38168D01*
X722562Y38925D01*
X723372Y39627D01*
X724230Y40269D01*
X725131Y40848D01*
X726071Y41362D01*
X727046Y41807D01*
X728050Y42181D01*
X729078Y42483D01*
X730125Y42711D01*
X731186Y42864D01*
X732254Y42940D01*
X733326Y42940D01*
X734394Y42864D01*
X735455Y42711D01*
X736502Y42483D01*
X737530Y42181D01*
X738534Y41807D01*
X739509Y41362D01*
X740449Y40848D01*
X741350Y40269D01*
X742208Y39627D01*
X743018Y38925D01*
X743775Y38168D01*
X744477Y37358D01*
X745119Y36500D01*
X745698Y35599D01*
X746212Y34659D01*
X746657Y33684D01*
X747031Y32680D01*
X747333Y31652D01*
X747561Y30605D01*
X747714Y29544D01*
X747790Y28476D01*
X747790Y27404D01*
X749060Y767814D02*
X748984Y766746D01*
X748831Y765685D01*
X748603Y764638D01*
X748301Y763610D01*
X747927Y762606D01*
X747482Y761631D01*
X746968Y760691D01*
X746389Y759790D01*
X745747Y758932D01*
X745045Y758122D01*
X744288Y757365D01*
X743478Y756663D01*
X742620Y756021D01*
X741719Y755442D01*
X740779Y754928D01*
X739804Y754483D01*
X738800Y754109D01*
X737772Y753807D01*
X736725Y753579D01*
X735664Y753426D01*
X734596Y753350D01*
X733524Y753350D01*
X732456Y753426D01*
X731395Y753579D01*
X730348Y753807D01*
X729320Y754109D01*
X728316Y754483D01*
X727341Y754928D01*
X726401Y755442D01*
X725500Y756021D01*
X724642Y756663D01*
X723832Y757365D01*
X723075Y758122D01*
X722373Y758932D01*
X721731Y759790D01*
X721152Y760691D01*
X720638Y761631D01*
X720193Y762606D01*
X719819Y763610D01*
X719517Y764638D01*
X719289Y765685D01*
X719136Y766746D01*
X719060Y767814D01*
X719060Y768886D01*
X719136Y769954D01*
X719289Y771015D01*
X719517Y772062D01*
X719819Y773090D01*
X720193Y774094D01*
X720638Y775069D01*
X721152Y776009D01*
X721731Y776910D01*
X722373Y777768D01*
X723075Y778578D01*
X723832Y779335D01*
X724642Y780037D01*
X725500Y780679D01*
X726401Y781258D01*
X727341Y781772D01*
X728316Y782217D01*
X729320Y782591D01*
X730348Y782893D01*
X731395Y783121D01*
X732456Y783274D01*
X733524Y783350D01*
X734596Y783350D01*
X735664Y783274D01*
X736725Y783121D01*
X737772Y782893D01*
X738800Y782591D01*
X739804Y782217D01*
X740779Y781772D01*
X741719Y781258D01*
X742620Y780679D01*
X743478Y780037D01*
X744288Y779335D01*
X745045Y778578D01*
X745747Y777768D01*
X746389Y776910D01*
X746968Y776009D01*
X747482Y775069D01*
X747927Y774094D01*
X748301Y773090D01*
X748603Y772062D01*
X748831Y771015D01*
X748984Y769954D01*
X749060Y768886D01*
X749060Y767814D01*
X48020Y764004D02*
X47944Y762936D01*
X47791Y761875D01*
X47563Y760828D01*
X47261Y759800D01*
X46887Y758796D01*
X46442Y757821D01*
X45928Y756881D01*
X45349Y755980D01*
X44707Y755122D01*
X44005Y754312D01*
X43248Y753555D01*
X42438Y752853D01*
X41580Y752211D01*
X40679Y751632D01*
X39739Y751118D01*
X38764Y750673D01*
X37760Y750299D01*
X36732Y749997D01*
X35685Y749769D01*
X34624Y749616D01*
X33556Y749540D01*
X32484Y749540D01*
X31416Y749616D01*
X30355Y749769D01*
X29308Y749997D01*
X28280Y750299D01*
X27276Y750673D01*
X26301Y751118D01*
X25361Y751632D01*
X24460Y752211D01*
X23602Y752853D01*
X22792Y753555D01*
X22035Y754312D01*
X21333Y755122D01*
X20691Y755980D01*
X20112Y756881D01*
X19598Y757821D01*
X19153Y758796D01*
X18779Y759800D01*
X18477Y760828D01*
X18249Y761875D01*
X18096Y762936D01*
X18020Y764004D01*
X18020Y765076D01*
X18096Y766144D01*
X18249Y767205D01*
X18477Y768252D01*
X18779Y769280D01*
X19153Y770284D01*
X19598Y771259D01*
X20112Y772199D01*
X20691Y773100D01*
X21333Y773958D01*
X22035Y774768D01*
X22792Y775525D01*
X23602Y776227D01*
X24460Y776869D01*
X25361Y777448D01*
X26301Y777962D01*
X27276Y778407D01*
X28280Y778781D01*
X29308Y779083D01*
X30355Y779311D01*
X31416Y779464D01*
X32484Y779540D01*
X33556Y779540D01*
X34624Y779464D01*
X35685Y779311D01*
X36732Y779083D01*
X37760Y778781D01*
X38764Y778407D01*
X39739Y777962D01*
X40679Y777448D01*
X41580Y776869D01*
X42438Y776227D01*
X43248Y775525D01*
X44005Y774768D01*
X44707Y773958D01*
X45349Y773100D01*
X45928Y772199D01*
X46442Y771259D01*
X46887Y770284D01*
X47261Y769280D01*
X47563Y768252D01*
X47791Y767205D01*
X47944Y766144D01*
X48020Y765076D01*
X48020Y764004D01*
X279560Y634167D02*
X279636Y635037D01*
X279788Y635896D01*
X280014Y636740D01*
X280312Y637560D01*
X280681Y638352D01*
X281118Y639108D01*
X281619Y639823D01*
X282180Y640492D01*
X282798Y641110D01*
X283467Y641671D01*
X284182Y642172D01*
X284938Y642609D01*
X285730Y642978D01*
X286550Y643276D01*
X287394Y643502D01*
X288254Y643654D01*
X289123Y643730D01*
X289997Y643730D01*
X290867Y643654D01*
X291726Y643502D01*
X292570Y643276D01*
X293390Y642978D01*
X294182Y642609D01*
X294938Y642172D01*
X295653Y641671D01*
X296322Y641110D01*
X296940Y640492D01*
X297501Y639823D01*
X298002Y639108D01*
X298439Y638352D01*
X298808Y637560D01*
X299106Y636740D01*
X299332Y635896D01*
X299484Y635037D01*
X299560Y634167D01*
X299560Y633293D01*
X299484Y632424D01*
X299332Y631564D01*
X299106Y630720D01*
X298808Y629900D01*
X298439Y629108D01*
X298002Y628352D01*
X297501Y627637D01*
X296940Y626968D01*
X296322Y626350D01*
X295653Y625789D01*
X294938Y625288D01*
X294182Y624851D01*
X293390Y624482D01*
X292570Y624184D01*
X291726Y623958D01*
X290867Y623806D01*
X289997Y623730D01*
X289123Y623730D01*
X288254Y623806D01*
X287394Y623958D01*
X286550Y624184D01*
X285730Y624482D01*
X284938Y624851D01*
X284182Y625288D01*
X283467Y625789D01*
X282798Y626350D01*
X282180Y626968D01*
X281619Y627637D01*
X281118Y628352D01*
X280681Y629108D01*
X280312Y629900D01*
X280014Y630720D01*
X279788Y631564D01*
X279636Y632424D01*
X279560Y633293D01*
X279560Y634167D01*
X279560Y711637D02*
X279636Y712507D01*
X279788Y713366D01*
X280014Y714210D01*
X280312Y715030D01*
X280681Y715822D01*
X281118Y716578D01*
X281619Y717293D01*
X282180Y717962D01*
X282798Y718580D01*
X283467Y719141D01*
X284182Y719642D01*
X284938Y720079D01*
X285730Y720448D01*
X286550Y720746D01*
X287394Y720972D01*
X288254Y721124D01*
X289123Y721200D01*
X289997Y721200D01*
X290867Y721124D01*
X291726Y720972D01*
X292570Y720746D01*
X293390Y720448D01*
X294182Y720079D01*
X294938Y719642D01*
X295653Y719141D01*
X296322Y718580D01*
X296940Y717962D01*
X297501Y717293D01*
X298002Y716578D01*
X298439Y715822D01*
X298808Y715030D01*
X299106Y714210D01*
X299332Y713366D01*
X299484Y712507D01*
X299560Y711637D01*
X299560Y710763D01*
X299484Y709894D01*
X299332Y709034D01*
X299106Y708190D01*
X298808Y707370D01*
X298439Y706578D01*
X298002Y705822D01*
X297501Y705107D01*
X296940Y704438D01*
X296322Y703820D01*
X295653Y703259D01*
X294938Y702758D01*
X294182Y702321D01*
X293390Y701952D01*
X292570Y701654D01*
X291726Y701428D01*
X290867Y701276D01*
X289997Y701200D01*
X289123Y701200D01*
X288254Y701276D01*
X287394Y701428D01*
X286550Y701654D01*
X285730Y701952D01*
X284938Y702321D01*
X284182Y702758D01*
X283467Y703259D01*
X282798Y703820D01*
X282180Y704438D01*
X281619Y705107D01*
X281118Y705822D01*
X280681Y706578D01*
X280312Y707370D01*
X280014Y708190D01*
X279788Y709034D01*
X279636Y709894D01*
X279560Y710763D01*
X279560Y711637D01*
X150020Y711637D02*
X150096Y712507D01*
X150248Y713366D01*
X150474Y714210D01*
X150772Y715030D01*
X151141Y715822D01*
X151578Y716578D01*
X152079Y717293D01*
X152640Y717962D01*
X153258Y718580D01*
X153927Y719141D01*
X154642Y719642D01*
X155398Y720079D01*
X156190Y720448D01*
X157010Y720746D01*
X157854Y720972D01*
X158714Y721124D01*
X159583Y721200D01*
X160457Y721200D01*
X161327Y721124D01*
X162186Y720972D01*
X163030Y720746D01*
X163850Y720448D01*
X164642Y720079D01*
X165398Y719642D01*
X166113Y719141D01*
X166782Y718580D01*
X167400Y717962D01*
X167961Y717293D01*
X168462Y716578D01*
X168899Y715822D01*
X169268Y715030D01*
X169566Y714210D01*
X169792Y713366D01*
X169944Y712507D01*
X170020Y711637D01*
X170020Y710763D01*
X169944Y709894D01*
X169792Y709034D01*
X169566Y708190D01*
X169268Y707370D01*
X168899Y706578D01*
X168462Y705822D01*
X167961Y705107D01*
X167400Y704438D01*
X166782Y703820D01*
X166113Y703259D01*
X165398Y702758D01*
X164642Y702321D01*
X163850Y701952D01*
X163030Y701654D01*
X162186Y701428D01*
X161327Y701276D01*
X160457Y701200D01*
X159583Y701200D01*
X158714Y701276D01*
X157854Y701428D01*
X157010Y701654D01*
X156190Y701952D01*
X155398Y702321D01*
X154642Y702758D01*
X153927Y703259D01*
X153258Y703820D01*
X152640Y704438D01*
X152079Y705107D01*
X151578Y705822D01*
X151141Y706578D01*
X150772Y707370D01*
X150474Y708190D01*
X150248Y709034D01*
X150096Y709894D01*
X150020Y710763D01*
X150020Y711637D01*
X150020Y634167D02*
X150096Y635037D01*
X150248Y635896D01*
X150474Y636740D01*
X150772Y637560D01*
X151141Y638352D01*
X151578Y639108D01*
X152079Y639823D01*
X152640Y640492D01*
X153258Y641110D01*
X153927Y641671D01*
X154642Y642172D01*
X155398Y642609D01*
X156190Y642978D01*
X157010Y643276D01*
X157854Y643502D01*
X158714Y643654D01*
X159583Y643730D01*
X160457Y643730D01*
X161327Y643654D01*
X162186Y643502D01*
X163030Y643276D01*
X163850Y642978D01*
X164642Y642609D01*
X165398Y642172D01*
X166113Y641671D01*
X166782Y641110D01*
X167400Y640492D01*
X167961Y639823D01*
X168462Y639108D01*
X168899Y638352D01*
X169268Y637560D01*
X169566Y636740D01*
X169792Y635896D01*
X169944Y635037D01*
X170020Y634167D01*
X170020Y633293D01*
X169944Y632424D01*
X169792Y631564D01*
X169566Y630720D01*
X169268Y629900D01*
X168899Y629108D01*
X168462Y628352D01*
X167961Y627637D01*
X167400Y626968D01*
X166782Y626350D01*
X166113Y625789D01*
X165398Y625288D01*
X164642Y624851D01*
X163850Y624482D01*
X163030Y624184D01*
X162186Y623958D01*
X161327Y623806D01*
X160457Y623730D01*
X159583Y623730D01*
X158714Y623806D01*
X157854Y623958D01*
X157010Y624184D01*
X156190Y624482D01*
X155398Y624851D01*
X154642Y625288D01*
X153927Y625789D01*
X153258Y626350D01*
X152640Y626968D01*
X152079Y627637D01*
X151578Y628352D01*
X151141Y629108D01*
X150772Y629900D01*
X150474Y630720D01*
X150248Y631564D01*
X150096Y632424D01*
X150020Y633293D01*
X150020Y634167D01*
M02*
