G04 EAGLE Gerber RS-274X export*
G75*
%MOMM*%
%FSLAX34Y34*%
%LPD*%
%INSoldermask Top*%
%IPPOS*%
%AMOC8*
5,1,8,0,0,1.08239X$1,22.5*%
G01*
%ADD10C,3.203200*%
%ADD11C,2.153200*%
%ADD12C,2.133600*%
%ADD13C,1.611200*%
%ADD14C,1.853200*%
%ADD15C,2.203200*%
%ADD16P,2.281895X8X22.500000*%


D10*
X33020Y31750D03*
X732790Y27940D03*
X734060Y768350D03*
X33020Y764540D03*
D11*
X88655Y101355D03*
X114655Y101355D03*
X140655Y101355D03*
X166655Y101355D03*
X192655Y101355D03*
X218655Y101355D03*
X244655Y101355D03*
X270655Y101355D03*
D12*
X648480Y139600D03*
X648480Y165000D03*
X648480Y190400D03*
X648480Y215800D03*
X648480Y241200D03*
X648480Y266600D03*
X648480Y292000D03*
X648480Y317400D03*
X648480Y342800D03*
X648480Y368200D03*
X648480Y393600D03*
X648480Y419000D03*
X648480Y444400D03*
X648480Y469800D03*
X648480Y495200D03*
X400780Y139600D03*
X400780Y165000D03*
X400780Y190400D03*
X400780Y215800D03*
X400780Y241200D03*
X400780Y266600D03*
X400780Y292000D03*
X400780Y317400D03*
X400780Y342800D03*
X400780Y368200D03*
X400780Y393600D03*
X400780Y419000D03*
X400780Y444400D03*
X400780Y469800D03*
X400780Y495200D03*
D11*
X143510Y284480D03*
X118110Y284480D03*
X168910Y284480D03*
X194310Y284480D03*
X219710Y284480D03*
X245110Y284480D03*
X270510Y284480D03*
X92710Y284480D03*
D13*
X469900Y635000D03*
X444500Y635000D03*
X444500Y711200D03*
X469900Y711200D03*
X355600Y711200D03*
X381000Y711200D03*
X558800Y673100D03*
X533400Y673100D03*
X381000Y635000D03*
X355600Y635000D03*
D14*
X255830Y686120D03*
X225830Y686120D03*
X195830Y686120D03*
X255830Y661120D03*
X225830Y661120D03*
X195830Y661120D03*
D15*
X289560Y633730D03*
X289560Y711200D03*
X160020Y711200D03*
X160020Y633730D03*
D16*
X160020Y530860D03*
X205740Y530860D03*
M02*
